<svg id="Capa_1" enable-background="new 0 0 512 512" height="512" viewBox="0 0 512 512" width="512" xmlns="http://www.w3.org/2000/svg"><path d="m324.017 306.929c-4.008-2.06-8.897-.496-10.952 3.496l-56.881 110.198-.183 42.615h.032c4.484-.016 8.111-3.671 8.095-8.159-.032-9.353 2.214-18.694 6.5-27.004l56.881-110.198c2.055-3.988.492-8.889-3.492-10.948z" fill="#f9eac7"/><path d="m318.451 290.49-8.86 9.284c-2.999 3.142-2.12 8.287 1.751 10.255l19.14 9.736c3.871 1.969 8.546-.35 9.32-4.624l2.286-12.627z" fill="#95d6a4"/><path d="m329.732 297.56c-3.973-2.021-7.719-4.409-11.28-7.07l31.858-33.384-8.221 45.408c-4.248-1.311-8.384-2.932-12.357-4.954z" fill="#78c2a4"/><path d="m307.719 126.325c-27.85 54.749-16.844 132.822 31.031 157.175 14.644 7.449 28.197 11.278 45.11 7.963 38.379-7.523 77.9-38.944 97.231-76.946 24.353-47.875 5.285-106.429-42.59-130.782s-106.428-5.286-130.782 42.59z" fill="#b3e59f"/><path d="m368.118 286.002c-43.061-21.904-53.654-89.242-35.104-142.411l-34.225 4.935c-16.218 52.321-4.906 116.25 36.822 137.476 14.643 7.448 31.336 8.77 48.248 5.457-5.425-1.174-10.723-2.904-15.741-5.457z" fill="#95d6a4"/><path d="m198.937 359.187c-2.056-3.992-6.945-5.556-10.952-3.496-3.984 2.06-5.548 6.96-3.492 10.948l56.881 110.199c4.286 8.31 6.532 17.651 6.5 27.004l7.944-34.457z" fill="#eac89f"/><path d="m202.409 348.536-8.86-9.284-23.637 12.024 2.286 12.627c.774 4.274 5.449 6.593 9.32 4.624l19.14-9.736c3.872-1.969 4.75-7.113 1.751-10.255z" fill="#c3aff0"/><path d="m182.269 346.322c3.973-2.021 7.719-4.409 11.28-7.07l-31.858-33.384 8.221 45.408c4.248-1.311 8.384-2.932 12.357-4.954z" fill="#aa91e6"/><path d="m204.282 175.087c20.624 40.544 21.661 95.252 1.368 130.801-7.11 12.455-16.561 18.127-28.982 24.446-47.875 24.353-112.483-16.251-140.333-71-19.88-39.081-16.25-81.332 13.789-110.232 6.76-6.503 14.582-12.131 23.376-16.605 47.875-24.354 106.428-5.286 130.782 42.59z" fill="#d6bdef"/><path d="m56.966 255.374c-23.86-31.952-25.211-73.702-6.842-106.273-30.042 28.9-39.095 75.095-19.214 114.177 27.85 54.749 97.605 95.839 145.481 71.486 12.419-6.317 22.151-16.425 29.261-28.876-43.855 24.499-113.775-3.762-148.686-50.514z" fill="#c3aff0"/><path d="m256 512c-4.492 0-8.127-3.639-8.127-8.127v-195.048c0-4.488 3.635-8.127 8.127-8.127s8.127 3.639 8.127 8.127v195.048c0 4.488-3.635 8.127-8.127 8.127z" fill="#f4dbb3"/><path d="m277.242 314.617-4.622-15.407h-33.24l-4.622 15.407c-1.564 5.214 2.34 10.462 7.784 10.462h26.916c5.444 0 9.349-5.247 7.784-10.462z" fill="#e5646e"/><path d="m256 300.698c5.588 0 11.13-.539 16.62-1.488l-16.62-55.4-16.62 55.401c5.49.948 11.032 1.487 16.62 1.487z" fill="#db4655"/><path d="m377.905 121.905c0 57.017-29.932 118.726-72.807 146.908-15.021 9.873-31.63 9.687-49.098 9.687-67.326 0-115-79.603-115-156.595 0-54.948 29.45-101.405 79.419-116.63 11.256-3.43 23.203-5.275 35.581-5.275 67.326 0 121.905 54.579 121.905 121.905z" fill="#ff8086"/><path d="m167.698 127.881c-8.498-49.256 13.691-96.654 52.722-122.603-49.987 15.214-86.325 61.665-86.325 116.626 0 76.993 54.579 162.54 121.905 162.54 17.464 0 34.076-5.767 49.094-15.637-62.915 2.449-124.963-68.855-137.396-140.926z" fill="#e5646e"/></svg>