<svg id="Capa_1" enable-background="new 0 0 511.929 511.929" height="512" viewBox="0 0 511.929 511.929" width="512" xmlns="http://www.w3.org/2000/svg"><path d="m329.765 251.092-27.01 27.01-21.22-21.21 27.02-27.01c5.84-5.85 5.84-15.37 0-21.22-.91-.91-1.91-1.68-2.98-2.31-5.75-3.4-13.3-2.63-18.24 2.31l-25.94 25.94-21.21-21.21 25.94-25.94c16.65-16.66 43.22-17.5 60.88-2.53.95.79 1.87 1.64 2.76 2.53 17.58 17.58 17.59 46.05 0 63.64z" fill="#474f54"/><path d="m329.765 251.092-27.01 27.01-21.22-21.21 27.02-27.01c5.84-5.85 5.84-15.37 0-21.22-.91-.91-1.91-1.68-2.98-2.31l21.43-21.43c.95.79 1.87 1.64 2.76 2.53 17.58 17.58 17.59 46.05 0 63.64z" fill="#32393f"/><path d="m281.595 230.332c-64.33-64.34-169.01-64.34-233.34 0-64.34 64.33-64.34 169.01 0 233.34 64.33 64.34 169.01 64.34 233.34 0 64.34-64.33 64.34-169.01 0-233.34z" fill="#575f64"/><path d="m281.595 463.672c-64.33 64.34-169.01 64.34-233.34 0l233.34-233.34c64.34 64.33 64.34 169.01 0 233.34z" fill="#474f54"/><path d="m435.105 98.032-44.43 44.43-10.6-10.6-10.61-10.61 44.43-44.43 10.61 10.61z" fill="#474f54"/><path d="m376.173 107.452h62.834v14.991h-62.834z" fill="#32393f" transform="matrix(.707 -.707 .707 .707 38.101 321.877)"/><path d="m390.675 184.892-21.21 21.21c-17.54 17.54-46.09 17.55-63.64 0-17.58-17.59-17.59-46.05 0-63.64l21.21 21.21c-5.86 5.87-5.86 15.35 0 21.22 5.85 5.84 15.37 5.84 21.22 0l21.21-21.22c5.85-5.85 5.85-15.36 0-21.21s-15.36-5.85-21.21 0l-21.22-21.21c17.55-17.55 46.1-17.55 63.64 0 17.59 17.58 17.59 46.05 0 63.64z" fill="#575f64"/><path d="m498.745 76.822-21.21 21.21c-17.55 17.55-46.1 17.55-63.64 0-17.59-17.58-17.59-46.05 0-63.64l21.21 21.22c-5.85 5.85-5.85 15.36 0 21.21s15.36 5.85 21.21 0l21.22-21.21c5.894-5.915 5.822-15.378-.01-21.21-5.835-5.834-15.298-5.901-21.21-.01l-21.21-21.21c8.5-8.5 19.8-13.18 31.82-13.18 13.04 0 23.98 5.2 31.81 13.19 16.09 16.42 19.03 44.61.01 63.63z" fill="#575f64"/><g fill="#474f54"><path d="m390.675 184.892-21.21 21.21c-17.54 17.54-46.09 17.55-63.64 0l21.21-21.21c5.85 5.84 15.37 5.84 21.22 0l21.21-21.22c5.85-5.85 5.85-15.36 0-21.21l21.21-21.21c17.59 17.58 17.59 46.05 0 63.64z"/><path d="m498.745 76.822-21.21 21.21c-17.55 17.55-46.1 17.55-63.64 0l21.21-21.21c5.85 5.85 15.36 5.85 21.21 0l21.22-21.21c5.894-5.915 5.822-15.378-.01-21.21l21.21-21.21c16.09 16.42 19.03 44.61.01 63.63z"/></g></svg>