<svg id="Layer_1" enable-background="new 0 0 512 512" height="512" viewBox="0 0 512 512" width="512" xmlns="http://www.w3.org/2000/svg"><g><path d="m442.068 29.315h-56.03v29.083h56.03c5.665 0 10.276 4.61 10.276 10.276v43.064c0 9.378-2.643 18.546-7.642 26.515-14.259 22.724-43.712 56.409-88.101 73.919-12.664 16.575-28.857 30.298-47.455 40.075 37.034-2.589 72.962-14.891 102.913-36.68 28.079-20.427 46.646-44.913 57.277-61.857 7.91-12.605 12.091-27.119 12.091-41.972v-43.064c0-21.703-17.657-39.359-39.359-39.359z" fill="#ffeb7e"/><g fill="#ffe559"><path d="m404.839 51.457v-15.202c0-3.833 3.107-6.94 6.94-6.94h-25.741v29.083h25.741c-3.833-.001-6.94-3.108-6.94-6.941z"/><path d="m365.409 223.893c6.849-7.215 14.757-13.37 23.651-17.826 36.824-18.449 61.7-47.508 74.442-67.814 5-7.969 7.642-17.137 7.642-26.515v-43.065c0-5.675-4.601-10.276-10.276-10.276h-18.801c5.665 0 10.276 4.61 10.276 10.276v43.064c0 9.378-2.643 18.546-7.642 26.515-14.259 22.724-43.713 56.409-88.101 73.919-12.664 16.575-28.857 30.298-47.455 40.075 8.258-.577 16.456-1.665 24.55-3.206 11.734-6.871 22.412-15.347 31.714-25.147z"/></g><path d="m155.4 212.172c-44.389-17.511-73.843-51.195-88.101-73.919-5-7.969-7.642-17.137-7.642-26.515v-43.064c0-5.666 4.61-10.276 10.276-10.276h56.03v-29.083h-56.03c-21.702 0-39.359 17.656-39.359 39.359v43.064c0 14.853 4.181 29.367 12.091 41.972 10.631 16.944 29.199 41.43 57.277 61.857 29.951 21.789 65.879 34.091 102.913 36.68-18.598-9.777-34.791-23.501-47.455-40.075z" fill="#ffeb7e"/><path d="m118.742 215.567c-28.079-20.427-46.646-44.913-57.277-61.857-7.91-12.605-12.091-27.119-12.091-41.972v-43.064c0-21.702 17.657-39.359 39.359-39.359h-18.801c-21.702 0-39.359 17.656-39.359 39.359v43.064c0 14.853 4.181 29.367 12.091 41.972 10.631 16.944 29.199 41.43 57.277 61.857 29.951 21.789 65.879 34.091 102.913 36.68-1.945-1.023-3.858-2.098-5.749-3.206-28.204-5.369-55.09-16.544-78.363-33.474z" fill="#ffe559"/><path d="m278.124 313.03v-50.822c-14.602 3.255-29.645 3.255-44.247 0v50.822z" fill="#fbc700"/><path d="m256.748 264.638c-7.661.057-15.325-.749-22.872-2.431v50.822h22.872z" fill="#eab900"/><path d="m317.528 357.077v-13.847c0-17.45-14.277-31.727-31.727-31.727h-59.602c-17.45 0-31.727 14.277-31.727 31.727v13.847z" fill="#ffeb7e"/><path d="m265.603 311.503h-39.404c-17.45 0-31.727 14.277-31.727 31.727v13.847h39.404v-13.847c0-17.45 14.277-31.727 31.727-31.727z" fill="#ffe559"/><g><path d="m386.879 26.224h-261.758c-.412 0-.818-.025-1.219-.068v98.915c0 62.247 39.602 115.241 94.985 135.17 24.018 8.642 50.208 8.642 74.226 0 55.383-19.928 94.985-72.922 94.985-135.17v-98.915c-.401.043-.807.068-1.219.068z" fill="#ffd500"/></g><g><path d="m280.415 260.241c-55.383-19.928-94.985-72.922-94.985-135.17v-98.847h-60.309c-.412 0-.818-.025-1.219-.068v98.915c0 62.247 39.602 115.241 94.985 135.17 21.919 7.887 45.642 8.552 67.877 2.044-2.129-.624-4.25-1.289-6.349-2.044z" fill="#fbc700"/></g><path d="m386.879 0h-261.758c-6.23 0-11.281 5.051-11.281 11.281v6.753c0 6.23 5.051 11.281 11.281 11.281h261.759c6.23 0 11.281-5.051 11.281-11.281v-6.753c-.001-6.23-5.052-11.281-11.282-11.281z" fill="#ffeb7e"/><path d="m172.56 18.034v-6.753c0-6.23 5.051-11.281 11.281-11.281h-58.72c-6.23 0-11.281 5.051-11.281 11.281v6.753c0 6.23 5.051 11.281 11.281 11.281h58.72c-6.23 0-11.281-5.051-11.281-11.281z" fill="#ffe559"/><path d="m341.937 469.813v-103.033c0-7.037-5.758-12.794-12.794-12.794h-146.286c-7.037 0-12.794 5.757-12.794 12.794v103.032h171.874z" fill="#dd8858"/><path d="m229.215 353.986h-46.358c-7.037 0-12.795 5.757-12.795 12.794v103.032h46.358v-103.032c.001-7.037 5.759-12.794 12.795-12.794z" fill="#cb6c35"/><g><path d="m288.654 405.592h-65.307c-4.267 0-7.726-3.459-7.726-7.726s3.459-7.726 7.726-7.726h65.307c4.267 0 7.726 3.459 7.726 7.726s-3.459 7.726-7.726 7.726z" fill="#cb6c35"/></g><g><path d="m288.654 434.378h-65.307c-4.267 0-7.726-3.459-7.726-7.726s3.459-7.726 7.726-7.726h65.307c4.267 0 7.726 3.459 7.726 7.726s-3.459 7.726-7.726 7.726z" fill="#cb6c35"/></g><path d="m354.091 467.753h-155.69c-5.61 2.31-9.563 7.825-9.563 14.268v15.711c0 6.443 3.953 11.958 9.563 14.268h155.69c8.097 0 14.66-6.564 14.66-14.66v-14.927c0-8.097-6.564-14.66-14.66-14.66z" fill="#e39b74"/><path d="m189.607 497.34v-14.927c0-8.097 6.564-14.66 14.66-14.66h-46.357c-8.097 0-14.66 6.564-14.66 14.66v14.927c0 8.096 6.564 14.66 14.66 14.66h46.358c-8.097 0-14.661-6.564-14.661-14.66z" fill="#dd8858"/></g></svg>