<?xml version="1.0" encoding="iso-8859-1"?>
<!-- Generator: Adobe Illustrator 19.0.0, SVG Export Plug-In . SVG Version: 6.00 Build 0)  -->
<svg version="1.1" id="Capa_1" xmlns="http://www.w3.org/2000/svg" xmlns:xlink="http://www.w3.org/1999/xlink" x="0px" y="0px"
	 viewBox="0 0 455.039 455.039" style="enable-background:new 0 0 455.039 455.039;" xml:space="preserve">
<path style="fill:#E24C4B;" d="M452.227,287.253v1.422c-11.378,42.667-54.044,66.844-96.711,55.467l-15.644-4.267l4.267,15.644
	c11.378,42.667-14.222,85.333-55.467,96.711h-1.422c-42.667,11.378-85.333-14.222-96.711-55.467l-4.267-15.644l-11.378,11.378
	c-31.289,31.289-81.067,31.289-110.933,0l-1.422-1.422c-31.289-31.289-31.289-81.067,0-112.356l11.378-11.378l-15.644-4.267
	c-42.667-11.378-66.844-54.044-55.467-96.711v-1.422c11.378-41.244,54.044-65.422,96.711-54.044l14.222,4.267l-2.844-15.644
	c-11.378-42.667,14.222-85.333,55.467-96.711h1.422c42.667-11.378,85.333,14.222,96.711,55.467l4.267,15.644l11.378-11.378
	c31.289-31.289,81.067-31.289,112.356,0l1.422,1.422c31.289,31.289,31.289,81.067,0,110.933l-11.378,11.378l15.644,4.267
	C439.427,201.919,463.605,244.586,452.227,287.253z"/>
<circle style="fill:#F4C533;" cx="227.516" cy="227.519" r="85.333"/>
<circle style="fill:#FED93D;" cx="227.516" cy="227.519" r="58.311"/>
<g>
</g>
<g>
</g>
<g>
</g>
<g>
</g>
<g>
</g>
<g>
</g>
<g>
</g>
<g>
</g>
<g>
</g>
<g>
</g>
<g>
</g>
<g>
</g>
<g>
</g>
<g>
</g>
<g>
</g>
</svg>
