<svg height="512pt" viewBox="-68 0 512 512.00005" width="512pt" xmlns="http://www.w3.org/2000/svg"><path d="m342.300781 214.519531-145.453125-210.832031c-3.378906-4.894531-10.621094-4.921875-14.03125-.046875l-147.683594 210.878906c-88.601562 124.738281.582032 297.480469 153.582032 297.480469 153.003906 0 242.1875-172.742188 153.585937-297.480469zm0 0" fill="#60b8fe"/><path d="m66.039062 214.519531 139.164063-198.71875-8.355469-12.113281c-3.378906-4.894531-10.617187-4.921875-14.03125-.046875l-147.683594 210.878906c-88.601562 124.738281.582032 297.480469 153.582032 297.480469 5.230468 0 10.378906-.207031 15.453125-.601562-143.429688-11.15625-223.703125-176.402344-138.128907-296.878907zm0 0" fill="#23a8fe"/><path d="m258.394531 436.160156c-4.847656-5.996094-3.921875-14.785156 2.074219-19.632812 30.023438-24.292969 47.382812-61.730469 46.433594-100.152344-.191406-7.707031 5.898437-14.109375 13.605468-14.300781.121094-.003907.238282-.003907.355469-.003907 7.546875 0 13.757813 6.023438 13.945313 13.613282 1.167968 47.027344-20.0625 92.839844-56.78125 122.546875-5.964844 4.828125-14.761719 3.949219-19.632813-2.070313zm0 0" fill="#23a8fe"/><path d="m276.9375 436.160156c-4.847656-5.996094-3.921875-14.785156 2.074219-19.632812 30.023437-24.292969 47.382812-61.730469 46.433593-100.152344-.109374-4.265625 1.71875-8.128906 4.675782-10.765625-2.472656-2.199219-5.710938-3.539063-9.257813-3.539063-.117187 0-.238281 0-.355469.003907-7.707031.191406-13.796874 6.59375-13.605468 14.300781.949218 38.417969-16.40625 75.859375-46.433594 100.152344-5.996094 4.847656-6.921875 13.640625-2.074219 19.632812 4.875 6.019532 13.667969 6.898438 19.632813 2.070313.171875-.136719.335937-.28125.507812-.421875-.5625-.5-1.105468-1.042969-1.597656-1.648438zm0 0" fill="#0193fa"/></svg>