<svg id="flat" height="512" viewBox="0 0 340 340" width="512" xmlns="http://www.w3.org/2000/svg"><path d="m93.188 89.015s-2.254 22.539-31.876 58.924c0 0-22.218 19.641-24.793 51.2 0 0 13.783-11.1 28.334-13.631 0 0-25.953 45.952-9.076 90.715 0 0 4.641-13.923 14.346-21.1 0 0-10.127 36.373 25.737 56.116a20.161 20.161 0 0 1 4.642-13.923s13.079-17.721 13.079-40.927c0 0 8.733 13.5 8.586 25.315 0 0 15.464-16.455 12.511-48.943 0 0 12.236 44.263 53.163 66.243 0 0 5.907-18.143 0-44.3 0 0 11.392 43.037 83.542 35.864 0 0 20.253-1.688 33.755 2.532 0 0-5.064-48.1-47.257-79.745 0 0 13.924-5.063 25.738-2.954 0 0-7.173-45.568-56.96-68.352a63.918 63.918 0 0 0 20.725-5.182 59.491 59.491 0 0 1 21.616-4.947 54.035 54.035 0 0 1 11.671.843s-3.376-16.455-17.721-21.1c0 0 13.5 4.641 29.957-2.532 0 0 14.767-7.173 26.159-7.173 0 0-9.282-35.02-58.226-30.8 0 0 14.346-5.485 21.518-18.986 0 0-17.721-14.346-69.618-1.688-14.849 3.621-26.243 5.309-34.945 5.872 0 0 9.143-6.182 13-14.733 0 0-16.432-2.79-41.855 12.093a157.032 157.032 0 0 1 -27.667 12.749c-10.651 3.716-24.041 10.619-28.085 22.55z" fill="#f29251"/><g fill="#cc4729"><path d="m128.659 110.638c15.626-5.159 35.669-7.812 45.531-8.883a11.413 11.413 0 0 0 8.89-6.095l1.056-2.037c-21.562-1.208-37.927.28-49.126 2.157a25.633 25.633 0 0 1 -24.975-10.134c-12.9-17.67-26.361-36.9-39.428-56.885a115.868 115.868 0 0 0 -5.045 17.483s16.057 24.409 38.3 54.584a25.54 25.54 0 0 1 4.289 21.07c-2.989 12.559-6.741 30.261-8.2 45.3l5.55-1.743a11.409 11.409 0 0 0 7.866-9.132c1.268-8.173 3.806-21.955 7.789-32.594 20.453 26.42 43.5 53.67 63.516 71.141l.323-6.6a18.173 18.173 0 0 0 -4.3-12.654c-8.61-10.145-28.344-33.816-52.036-64.978z"/><path d="m25.729 84.919s-18.653 20.605-7.158 35.354 14.749 20.88 14.749 20.88 20.822-35.412-7.591-56.234z"/><path d="m285.906 153.141s-2.562 16.838 25.994 25.259c0 0 9.151 2.2 13.177 5.124-.005-.002 4.023-34.592-39.171-30.383z"/></g><path d="m271.383 290.565s20.253-1.688 33.755 2.532c0 0-2.953-28.022-23.11-55.36-144.34 12.835-195.361-60.322-212.37-100.654-2.512 3.466-5.274 7.082-8.346 10.856 0 0-22.218 19.641-24.793 51.2 0 0 13.783-11.1 28.334-13.631 0 0-25.953 45.952-9.076 90.715 0 0 4.641-13.923 14.346-21.1 0 0-10.127 36.373 25.737 56.116a20.161 20.161 0 0 1 4.642-13.923s13.079-17.721 13.079-40.927c0 0 8.733 13.5 8.586 25.315 0 0 15.464-16.455 12.511-48.943 0 0 12.236 44.263 53.163 66.243 0 0 5.907-18.144 0-44.3 0-.004 11.392 43.034 83.542 35.861z" fill="#ea7649"/></svg>