<svg height="512" viewBox="0 0 32 32" width="512" xmlns="http://www.w3.org/2000/svg" xmlns:xlink="http://www.w3.org/1999/xlink"><linearGradient id="lg1"><stop offset="0" stop-color="#42a5f5"/><stop offset="1" stop-color="#1e88e5"/></linearGradient><linearGradient id="SVGID_1_" gradientUnits="userSpaceOnUse" x1="11" x2="14" xlink:href="#lg1" y1="25" y2="25"/><linearGradient id="SVGID_2_" gradientUnits="userSpaceOnUse" x1="5" x2="8" xlink:href="#lg1" y1="25" y2="25"/><linearGradient id="SVGID_3_" gradientUnits="userSpaceOnUse" x1="7" x2="10" xlink:href="#lg1" y1="29" y2="29"/><linearGradient id="SVGID_4_" gradientUnits="userSpaceOnUse" x1="13" x2="16" xlink:href="#lg1" y1="29" y2="29"/><linearGradient id="SVGID_5_" gradientUnits="userSpaceOnUse" x1="19" x2="22" xlink:href="#lg1" y1="29" y2="29"/><linearGradient id="SVGID_6_" gradientUnits="userSpaceOnUse" x1="17" x2="20" xlink:href="#lg1" y1="25" y2="25"/><linearGradient id="SVGID_7_" gradientUnits="userSpaceOnUse" x1="23" x2="26" xlink:href="#lg1" y1="25" y2="25"/><linearGradient id="SVGID_8_" gradientUnits="userSpaceOnUse" x1="1" x2="31" y1="11" y2="11"><stop offset="0" stop-color="#bbdefb"/><stop offset="1" stop-color="#64b5f6"/></linearGradient><g id="heavy_rain"><g><g><path d="m11.999 27c-.15 0-.303-.034-.446-.105-.494-.247-.694-.848-.447-1.342l1-2c.248-.494.848-.693 1.342-.447.494.247.694.848.447 1.342l-1 2c-.176.35-.529.552-.896.552z" fill="url(#SVGID_1_)"/></g><g><path d="m5.999 27c-.15 0-.303-.034-.446-.105-.494-.247-.694-.848-.447-1.342l1-2c.248-.494.849-.693 1.342-.447.494.247.694.848.447 1.342l-1 2c-.176.35-.529.552-.896.552z" fill="url(#SVGID_2_)"/></g><g><path d="m7.999 31c-.15 0-.303-.034-.446-.105-.494-.247-.694-.848-.447-1.342l1-2c.247-.494.848-.694 1.342-.447s.694.848.447 1.342l-1 2c-.176.35-.529.552-.896.552z" fill="url(#SVGID_3_)"/></g><g><path d="m13.999 31c-.15 0-.303-.034-.446-.105-.494-.247-.694-.848-.447-1.342l1-2c.248-.494.848-.694 1.342-.447s.694.848.447 1.342l-1 2c-.176.35-.529.552-.896.552z" fill="url(#SVGID_4_)"/></g><g><path d="m19.999 31c-.15 0-.303-.034-.446-.105-.494-.247-.694-.848-.447-1.342l1-2c.248-.494.848-.694 1.342-.447s.694.848.447 1.342l-1 2c-.176.35-.529.552-.896.552z" fill="url(#SVGID_5_)"/></g><g><path d="m17.999 27c-.15 0-.303-.034-.446-.105-.494-.247-.694-.848-.447-1.342l1-2c.248-.494.849-.693 1.342-.447.494.247.694.848.447 1.342l-1 2c-.176.35-.529.552-.896.552z" fill="url(#SVGID_6_)"/></g><g><path d="m23.999 27c-.15 0-.303-.034-.446-.105-.494-.247-.694-.848-.447-1.342l1-2c.248-.494.848-.693 1.342-.447.494.247.694.848.447 1.342l-1 2c-.176.35-.529.552-.896.552z" fill="url(#SVGID_7_)"/></g><path d="m23 5c-.491 0-.973.042-1.438.127-1.64-2.564-4.471-4.127-7.562-4.127-4.011 0-7.562 2.71-8.65 6.52-2.624 1.063-4.35 3.6-4.35 6.48 0 3.86 3.141 7 7 7h15c4.411 0 8-3.589 8-8s-3.589-8-8-8z" fill="url(#SVGID_8_)"/></g></g></svg>