<?xml version="1.0"?>
<svg xmlns="http://www.w3.org/2000/svg" xmlns:xlink="http://www.w3.org/1999/xlink" xmlns:svgjs="http://svgjs.com/svgjs" version="1.1" width="512" height="512" x="0" y="0" viewBox="0 0 613.158 613.16" style="enable-background:new 0 0 512 512" xml:space="preserve" class=""><g transform="matrix(1.4000000000000004,0,0,1.4000000000000004,-122.63135070800774,-122.63173217773436)"><g><g><g><g><g><g id="XMLID_62_"><g><g><path d="m254.975 178.964c16.35-4.215 33.669-6.51 51.605-6.51 17.743 0 34.85 2.25 51.055 6.367l62.654-39.988c17.201-9.252 30.783 1.512 30.191 21.033l-2.465 71.502-.045-.023c25.01 26.996 40.01 61.283 40.01 98.619 0 2.789-.094 5.559-.258 8.281-.854 14.43-4.002 28.082-9.135 40.789-24.086 59.908-92.012 98.641-172.008 98.641-79.999 0-147.929-38.732-172.013-98.641-5.136-12.707-8.279-26.359-9.132-40.789-.168-2.723-.263-5.492-.263-8.281 0-37.527 15.142-71.977 40.364-99.021l-3.597-71.076c-.593-19.521 12.989-30.285 30.167-21.033z" fill="#f05042" data-original="#f05042" class=""/></g></g><g><g><path d="m306.581 489.503c-85.259 0-157.089-41.627-182.99-106.057-5.698-14.104-9.058-29.084-9.965-44.506-.186-3.049-.283-6.078-.283-8.977 0-38.947 15.465-76.98 43.544-107.09l17.304 16.137c-24.329 26.086-37.185 57.539-37.185 90.953 0 2.42.078 4.963.237 7.557.763 12.875 3.55 25.344 8.292 37.08 22.289 55.436 85.501 91.242 161.046 91.242 75.543 0 138.75-35.807 161.032-91.225 4.752-11.754 7.541-24.223 8.301-37.072.158-2.619.238-5.162.238-7.582 0-33.227-12.746-64.547-36.857-90.582l17.357-16.076c27.832 30.047 43.162 67.926 43.162 106.658 0 2.898-.098 5.928-.283 9.002-.912 15.396-4.27 30.377-9.973 44.498-25.897 64.413-97.723 106.04-182.977 106.04z" fill="#231f20" data-original="#231f20" class=""/></g><g><path d="m254.964 190.794c-5.268 0-10.07-3.545-11.447-8.883-1.631-6.326 2.177-12.777 8.505-14.406 35.208-9.068 73.143-9.145 108.53-.15 6.328 1.609 10.16 8.045 8.551 14.379s-8.059 10.166-14.381 8.553c-31.553-8.016-65.415-7.949-96.797.131-.989.253-1.983.376-2.961.376z" fill="#231f20" data-original="#231f20" class=""/></g><g><path d="m448.017 243.2c-1.961 0-3.924-.488-5.695-1.465-4.273-2.35-6.531-6.955-6.102-11.516l2.436-70.76c.203-6.613-1.932-10.34-3.814-11.506-2.58-1.592-6.646.113-8.602 1.115l-62.238 39.721c-5.512 3.523-12.818 1.902-16.34-3.604-3.514-5.51-1.898-12.822 3.607-16.34l62.656-39.986c.25-.156.504-.307.76-.445 11.402-6.133 23.285-6.348 32.598-.584 9.984 6.172 15.461 17.979 15.025 32.395l-2.465 71.553c-.141 4.107-2.406 7.85-5.979 9.875-1.812 1.032-3.828 1.547-5.847 1.547z" fill="#231f20" data-original="#231f20" class=""/></g><g><path d="m337.964 203.665c-3.842 0-7.604-1.865-9.881-5.307-3.6-5.451-2.102-12.793 3.344-16.395l19.684-13.012c5.459-3.609 12.791-2.104 16.393 3.342 3.602 5.451 2.104 12.791-3.344 16.395l-19.684 13.014c-2.01 1.328-4.274 1.963-6.512 1.963z" fill="#231f20" data-original="#231f20" class=""/></g><g><path d="m165.53 242.774c-6.26 0-11.486-4.91-11.806-11.232l-3.599-71.076c-.006-.084-.008-.16-.01-.24-.437-14.42 5.042-26.232 15.032-32.402 9.313-5.756 21.188-5.533 32.571.594.256.139.508.287.755.443l62.866 40.129c5.506 3.516 7.12 10.83 3.606 16.338-3.52 5.508-10.826 7.125-16.339 3.607l-62.455-39.865c-1.944-1.002-5.995-2.711-8.569-1.117-1.877 1.16-3.994 4.85-3.822 11.445l3.591 70.945c.331 6.527-4.69 12.088-11.213 12.414-.205.012-.41.017-.608.017z" fill="#231f20" data-original="#231f20" class=""/></g><g><path d="m274.438 203.665c-2.241 0-4.506-.635-6.514-1.963l-19.472-12.871c-5.452-3.604-6.949-10.939-3.35-16.393 3.607-5.449 10.941-6.955 16.392-3.346l19.478 12.871c5.449 3.602 6.949 10.941 3.345 16.393-2.275 3.444-6.041 5.309-9.879 5.309z" fill="#231f20" data-original="#231f20" class=""/></g><g><path d="m518.14 365.407c-1.914 0-3.854-.465-5.654-1.447l-1.66-.908c-10.076-5.496-18.777-10.246-27.596-13.861-9.248-3.834-18.211-6.258-29.098-7.883-6.465-.963-10.922-6.982-9.959-13.445.967-6.463 6.988-10.914 13.447-9.957 12.701 1.896 23.709 4.883 34.631 9.41 9.984 4.1 19.215 9.135 29.906 14.971l1.658.902c5.736 3.129 7.85 10.314 4.721 16.051-2.144 3.939-6.209 6.167-10.396 6.167z" fill="#231f20" data-original="#231f20" class=""/></g><g><path d="m512.224 407.499c-1.918 0-3.857-.469-5.658-1.449l-1.289-.705c-11.684-6.377-20.914-11.42-30.936-15.27-8.262-3.146-16.566-5.27-26.1-6.674-6.467-.945-10.938-6.957-9.988-13.422.953-6.463 6.945-10.938 13.426-9.986 11.281 1.66 21.172 4.193 31.121 7.982 11.523 4.432 21.857 10.07 33.813 16.604l1.293.703c5.732 3.131 7.842 10.316 4.715 16.051-2.149 3.936-6.21 6.166-10.397 6.166z" fill="#231f20" data-original="#231f20" class=""/></g><g><path d="m95.016 365.407c-4.191 0-8.247-2.229-10.395-6.168-3.129-5.736-1.016-12.922 4.717-16.051l1.635-.891c10.697-5.838 19.939-10.881 29.97-14.998 10.885-4.512 21.889-7.498 34.591-9.395 6.475-.957 12.484 3.494 13.448 9.957s-3.497 12.482-9.956 13.445c-10.888 1.625-19.853 4.049-29.062 7.867-8.859 3.635-17.571 8.387-27.656 13.893l-1.638.893c-1.797.983-3.74 1.448-5.654 1.448z" fill="#231f20" data-original="#231f20" class=""/></g><g><path d="m100.932 407.499c-4.19 0-8.246-2.23-10.395-6.166-3.132-5.734-1.021-12.92 4.718-16.051l1.286-.703c11.961-6.533 22.291-12.172 33.783-16.588 9.979-3.805 19.868-6.338 31.149-7.998 6.479-.951 12.475 3.521 13.429 9.986.948 6.465-3.523 12.477-9.988 13.422-9.532 1.404-17.839 3.527-26.136 6.686-9.989 3.838-19.218 8.881-30.898 15.258l-1.293.705c-1.799.98-3.743 1.449-5.655 1.449z" fill="#231f20" data-original="#231f20" class=""/></g></g></g></g></g></g></g><g><g><g><path d="m397.616 305.995c0 14.123-11.453 25.578-25.576 25.578-14.125 0-25.576-11.455-25.576-25.578 0-14.127 11.451-25.578 25.576-25.578 14.123 0 25.576 11.451 25.576 25.578z" fill="#231f20" data-original="#231f20" class=""/></g></g><g><g><path d="m266.698 305.995c0 14.123-11.45 25.578-25.577 25.578-14.128 0-25.58-11.455-25.58-25.578 0-14.127 11.452-25.578 25.58-25.578 14.127 0 25.577 11.451 25.577 25.578z" fill="#231f20" data-original="#231f20" class=""/></g></g></g><g><g><path d="m348.104 396.126c-4.037 0-7.975-2.07-10.184-5.795-7.096-11.965-20.131-19.396-34.009-19.396-13.881 0-26.91 7.432-34.009 19.396-3.331 5.615-10.586 7.477-16.209 4.137-5.62-3.334-7.47-10.592-4.139-16.211 11.338-19.111 32.167-30.982 54.356-30.982s43.019 11.871 54.355 30.982c3.336 5.619 1.484 12.877-4.133 16.211-1.893 1.121-3.975 1.658-6.028 1.658z" fill="#231f20" data-original="#231f20" class=""/></g></g><g><g><g><path d="m337.503 291.265 58.416-22.477" fill="#f5e2a9" data-original="#f5e2a9" class=""/></g><g><path d="m337.505 298.364c-2.852 0-5.539-1.727-6.625-4.551-1.408-3.66.418-7.768 4.076-9.172l58.416-22.479c3.666-1.416 7.764.418 9.174 4.076 1.406 3.656-.418 7.766-4.078 9.172l-58.414 22.477c-.838.327-1.701.477-2.549.477z" fill="#231f20" data-original="#231f20" class=""/></g></g><g><g><path d="m270.325 291.265-58.414-22.477" fill="#f5e2a9" data-original="#f5e2a9" class=""/></g><g><path d="m270.325 298.364c-.847 0-1.711-.15-2.548-.477l-58.414-22.477c-3.661-1.406-5.486-5.516-4.079-9.172 1.41-3.658 5.506-5.492 9.173-4.076l58.418 22.479c3.661 1.404 5.482 5.512 4.077 9.172-1.087 2.825-3.779 4.551-6.627 4.551z" fill="#231f20" data-original="#231f20" class=""/></g></g></g></g></g></svg>
