<svg id="Capa_1" enable-background="new 0 0 512 512" height="512" viewBox="0 0 512 512" width="512" xmlns="http://www.w3.org/2000/svg" xmlns:xlink="http://www.w3.org/1999/xlink"><linearGradient id="lg1"><stop offset="0" stop-color="#8b451c"/><stop offset="1" stop-color="#bf942a"/></linearGradient><linearGradient id="SVGID_1_" gradientUnits="userSpaceOnUse" x1="310.28" x2="340.089" xlink:href="#lg1" y1="431.624" y2="431.624"/><linearGradient id="SVGID_2_" gradientUnits="userSpaceOnUse" x1="460.129" x2="492.08" xlink:href="#lg1" y1="344.725" y2="344.725"/><linearGradient id="SVGID_3_" gradientUnits="userSpaceOnUse" x1="64.406" x2="78.392" y1="146.026" y2="121.803"><stop offset="0" stop-color="#252336"/><stop offset="1" stop-color="#594a8e"/></linearGradient><linearGradient id="SVGID_4_" gradientUnits="userSpaceOnUse" x1="114.966" x2="114.966" y1="250.8" y2="103.21"><stop offset="0" stop-color="#594a8e"/><stop offset="1" stop-color="#7662bd"/></linearGradient><linearGradient id="SVGID_5_" gradientUnits="userSpaceOnUse" x1="310.28" x2="340.089" xlink:href="#lg1" y1="318.553" y2="318.553"/><linearGradient id="lg2"><stop offset="0" stop-color="#c5baeb"/><stop offset="1" stop-color="#e9e5f6"/></linearGradient><linearGradient id="SVGID_6_" gradientUnits="userSpaceOnUse" x1="267.256" x2="294.836" xlink:href="#lg2" y1="299.472" y2="299.472"/><linearGradient id="SVGID_7_" gradientUnits="userSpaceOnUse" x1="112.548" x2="132.527" xlink:href="#lg2" y1="197.492" y2="162.887"/><linearGradient id="SVGID_8_" gradientUnits="userSpaceOnUse" x1="123.535" x2="226.935" xlink:href="#lg2" y1="157.088" y2="157.088"/><linearGradient id="lg3"><stop offset="0" stop-color="#d7d1eb"/><stop offset="1" stop-color="#e7e3f3"/></linearGradient><linearGradient id="SVGID_9_" gradientUnits="userSpaceOnUse" x1="140.872" x2="314.142" xlink:href="#lg3" y1="294.048" y2="394.085"/><linearGradient id="SVGID_10_" gradientUnits="userSpaceOnUse" x1="330.749" x2="502.333" xlink:href="#lg3" y1="395.972" y2="296.908"/><g><path d="m340.509 351.248-31.95 2.207v150.887l.008-.001c.095 2.029 1.375 3.954 3.891 5.407 5.776 3.335 15.864 2.917 22.534-.934 3.43-1.98 5.274-4.482 5.484-6.9l.033-.002z" fill="url(#SVGID_1_)"/><path d="m492.08 264.349-31.95 2.207v150.887l.008-.001c.095 2.029 1.375 3.954 3.892 5.406 5.776 3.335 15.864 2.917 22.534-.934 3.43-1.98 5.275-4.482 5.484-6.9l.033-.003v-150.662z" fill="url(#SVGID_2_)"/><g><path d="m193.093 17.126.013-.019-25.97-14.92-.014.02c-3.868-2.571-9.06-3.114-13.655-.461l-135.479 77.789c-9.665 5.58-15.618 15.891-15.618 27.051v216.946c0 5.056 2.779 9.143 6.639 11.303l-.004.005 27.054 15.545 157.038-333.257c-.001-.001-.002-.001-.004-.002z" fill="url(#SVGID_3_)"/><path d="m29.697 339.241v-216.947c0-11.159 5.953-21.471 15.618-27.051l135.479-77.789c8.64-4.988 19.441 1.247 19.441 11.224v216.946c0 11.159-5.954 21.471-15.618 27.051l-135.479 77.79c-8.64 4.988-19.441-1.247-19.441-11.224z" fill="url(#SVGID_4_)"/></g><g><path d="m489.133 316.873-283.088-163.441c-5.638-3.256-12.585-3.256-18.223 0l-155.179 89.161c-1.964 1.134-2.946 3.118-2.946 5.103v67.434c0 1.984.982 3.969 2.946 5.103l283.089 163.441c5.638 3.255 12.585 3.255 18.224 0l155.178-89.161c1.993-1.15 2.97-3.177 2.941-5.19h.005v-67.27h-.005c.025-2.01-.952-4.031-2.942-5.18z" fill="url(#SVGID_5_)"/><path d="m315.732 416.24-283.089-163.441c-3.928-2.268-3.928-7.938 0-10.206l155.178-89.161c5.638-3.255 12.585-3.255 18.223 0l283.089 163.441c3.928 2.268 3.928 7.938 0 10.206l-155.177 89.161c-5.639 3.256-12.586 3.256-18.224 0z" fill="#d7d1eb"/></g><g><path d="m492.075 254.619-462.378-74.356v67.434c0 1.984.982 3.969 2.946 5.103l283.089 163.44c5.638 3.255 12.585 3.255 18.224 0l155.178-89.161c1.993-1.15 2.97-3.177 2.941-5.19h.005v-67.27z" fill="url(#SVGID_6_)"/><path d="m315.732 348.807-283.089-163.441c-3.928-2.268-3.928-7.938 0-10.206l155.178-89.161c5.638-3.255 12.585-3.255 18.223 0l283.089 163.441c3.928 2.268 3.928 7.938 0 10.206l-155.178 89.161c-5.638 3.255-12.585 3.255-18.223 0z" fill="#d7d1eb"/></g><g><path d="m223.915 120.925c-.86-.745-1.853-1.318-2.927-1.69l-56.029-32.349c-2.671-2.367-6.713-3.097-10.236-1.063l-77.55 44.773c-7.839 4.526-12.668 12.889-12.668 21.941 0 3.529 2 6.354 4.739 7.782l58.121 33.557c2.632 1.797 6.2 2.194 9.352.374l77.55-44.773c7.839-4.526 12.668-12.89 12.668-21.941 0-2.735-1.207-5.041-3.02-6.611z" fill="url(#SVGID_7_)"/><path d="m136.203 164.698 77.55-44.773c5.859-3.382 13.182.846 13.182 7.611 0 9.052-4.829 17.416-12.668 21.941l-77.55 44.773c-5.859 3.382-13.182-.846-13.182-7.611 0-9.051 4.829-17.415 12.668-21.941z" fill="url(#SVGID_8_)"/></g><path d="m101.694 257.194 221.183 204.144 186.753-169.012c0-31.78-16.954-61.146-44.477-77.036l-160.786-92.83c-16.026-9.252-35.77-9.252-51.796 0l-106.47 61.04c-26.553 15.331-43.265 43.209-44.407 73.694z" fill="#e9e5f6"/><path d="m269.215 305.937-136.021-78.531c-9.633-5.562-20.92-2.531-27.048 5.159l40.408 126.955-.02.008 176.342 101.811v-62.457c.001-38.343-20.455-73.774-53.661-92.945z" fill="url(#SVGID_9_)"/><path d="m379.315 306.746 80.463-39.127c22.568-12.065 49.852 4.287 49.852 29.878v56.449l-186.753 107.392v-60.422c0-39.398 21.694-75.595 56.438-94.17z" fill="url(#SVGID_10_)"/><path d="m304.368 122.461c-16.026-9.253-35.77-9.253-51.796 0l-106.47 61.04c-19.164 11.064-33.196 28.666-39.956 49.064l52.318 9.43c7.679-13.306 18.801-24.626 32.567-32.574l106.47-61.04c15.88-9.168 35.407-9.238 51.354-.236z" fill="#f2edff"/><path d="m146.555 359.519v-73.062c0-15.884 4.236-31.165 11.91-44.462l-25.27-14.59c-9.633-5.562-20.92-2.531-27.048 5.159-.354 1.068-4.521 13.311-4.521 27.972v73.062z" fill="#e9e5f6"/></g></svg>