<svg height="512pt" viewBox="0 0 512 512.00105" width="512pt" xmlns="http://www.w3.org/2000/svg"><path d="m220.351562 334.785156c20.796876-14.742187 27.332032-43.171875 14.328126-65.6875-13-22.515625-40.882813-31.074218-64.050782-20.433594-2.367187-25.382812-23.71875-45.253906-49.71875-45.253906-26.003906 0-47.355468 19.871094-49.722656 45.253906-23.167969-10.640624-51.050781-2.085937-64.050781 20.433594-13 22.519532-6.46875 50.945313 14.328125 65.6875-20.796875 14.738282-27.328125 43.167969-14.328125 65.683594 13 22.519531 40.886719 31.078125 64.050781 20.433594 2.367188 25.382812 23.71875 45.253906 49.722656 45.253906 26 0 47.355469-19.871094 49.71875-45.253906 23.167969 10.644531 51.054688 2.085937 64.054688-20.433594 13-22.515625 6.464844-50.945312-14.332032-65.683594zm0 0" fill="#ffdee9"/><path d="m170.855469 334.785156c0 27.582032-22.359375 49.945313-49.945313 49.945313-27.585937 0-49.949218-22.363281-49.949218-49.945313 0-27.585937 22.363281-49.949218 49.949218-49.949218 27.585938 0 49.945313 22.363281 49.945313 49.949218zm0 0" fill="#ffd070"/><path d="m91.324219 334.785156c0-24.097656 17.0625-44.207031 39.765625-48.90625-3.285156-.683594-6.691406-1.042968-10.179688-1.042968-27.585937 0-49.949218 22.363281-49.949218 49.949218 0 27.582032 22.363281 49.945313 49.949218 49.945313 3.488282 0 6.894532-.359375 10.179688-1.039063-22.703125-4.703125-39.765625-24.8125-39.765625-48.90625zm0 0" fill="#ef9f00"/><path d="m405.386719 131.617188c20.800781-14.742188 27.332031-43.167969 14.332031-65.683594-13-22.519532-40.886719-31.078125-64.050781-20.433594-2.367188-25.382812-23.71875-45.253906-49.722657-45.253906-26.003906 0-47.355468 19.871094-49.722656 45.253906-23.164062-10.644531-51.050781-2.085938-64.050781 20.433594-13 22.515625-6.46875 50.945312 14.332031 65.683594-20.800781 14.742187-27.332031 43.167968-14.332031 65.6875 13 22.519531 40.886719 31.074218 64.050781 20.433593 2.367188 25.382813 23.71875 45.253907 49.722656 45.253907 26.003907 0 47.355469-19.871094 49.722657-45.253907 23.164062 10.640625 51.050781 2.085938 64.050781-20.433593 13-22.519532 6.46875-50.945313-14.332031-65.6875zm0 0" fill="#ff7266"/><path d="m355.894531 131.617188c0 27.585937-22.363281 49.949218-49.949219 49.949218-27.585937 0-49.949218-22.363281-49.949218-49.949218 0-27.585938 22.363281-49.945313 49.949218-49.945313 27.585938 0 49.949219 22.359375 49.949219 49.945313zm0 0" fill="#ffdee9"/><path d="m276.359375 131.617188c0-24.09375 17.066406-44.203126 39.769531-48.90625-3.289062-.679688-6.691406-1.039063-10.183594-1.039063-27.585937 0-49.945312 22.359375-49.945312 49.945313 0 27.585937 22.363281 49.949218 49.945312 49.949218 3.492188 0 6.894532-.363281 10.183594-1.042968-22.703125-4.699219-39.769531-24.808594-39.769531-48.90625zm0 0" fill="#e593a9"/><path d="m490.328125 380.625c20.796875-14.738281 27.332031-43.167969 14.328125-65.683594-13-22.519531-40.882812-31.074218-64.050781-20.433594-2.367188-25.382812-23.71875-45.253906-49.722657-45.253906-26 0-47.351562 19.871094-49.71875 45.253906-23.167968-10.640624-51.050781-2.085937-64.050781 20.433594-13.003906 22.515625-6.472656 50.945313 14.328125 65.683594-20.800781 14.742188-27.332031 43.171875-14.328125 65.6875 13 22.519531 40.882813 31.078125 64.050781 20.433594 2.367188 25.382812 23.71875 45.253906 49.71875 45.253906 26.003907 0 47.355469-19.871094 49.722657-45.253906 23.167969 10.644531 51.050781 2.085937 64.050781-20.433594 13.003906-22.519531 6.46875-50.945312-14.328125-65.6875zm0 0" fill="#cee9f0"/><path d="m440.832031 380.625c0 27.585938-22.363281 49.949219-49.945312 49.949219-27.585938 0-49.949219-22.363281-49.949219-49.949219 0-27.582031 22.363281-49.945312 49.949219-49.945312 27.582031 0 49.945312 22.363281 49.945312 49.945312zm0 0" fill="#66486b"/><path d="m361.300781 380.625c0-24.09375 17.0625-44.203125 39.765625-48.902344-3.285156-.683594-6.691406-1.042968-10.179687-1.042968-27.585938 0-49.949219 22.363281-49.949219 49.945312 0 27.585938 22.363281 49.949219 49.949219 49.949219 3.488281 0 6.894531-.359375 10.179687-1.039063-22.703125-4.703125-39.765625-24.8125-39.765625-48.910156zm0 0" fill="#4f3554"/><path d="m153.070312 161.691406s35.125-161.691406-152.613281-161.691406c0 0-16.722656 184.679688 152.613281 161.691406zm0 0" fill="#cee9f0"/><path d="m153.070312 169.503906c-2.101562 0-4.195312-.84375-5.734374-2.507812l-112.941407-122.011719c-2.929687-3.167969-2.738281-8.113281.425781-11.042969 3.167969-2.933594 8.113282-2.742187 11.042969.425782l112.941407 122.015624c2.929687 3.164063 2.738281 8.109376-.425782 11.042969-1.503906 1.390625-3.410156 2.078125-5.308594 2.078125zm0 0" fill="#82c3d9"/></svg>