<svg id="Capa_1" enable-background="new 0 0 512 512" height="512" viewBox="0 0 512 512" width="512" xmlns="http://www.w3.org/2000/svg"><g><g><path d="m318.986.057c-11.727-.641-22.348 4.174-29.556 12.137-1.591 1.757-4.368 1.751-5.959-.005-6.779-7.486-16.576-12.189-27.471-12.189s-20.692 4.703-27.471 12.189c-1.591 1.757-4.368 1.763-5.959.005-7.208-7.963-17.83-12.778-29.556-12.137-19.072 1.042-34.419 16.834-34.955 35.926-.589 20.95 16.219 38.118 37.036 38.118.104 0 .209 0 .313-.001 14.438-.119 26.296 11.317 26.296 25.755v90.449h68.593v-90.449c0-14.438 11.859-25.874 26.296-25.755.104.001.209.001.313.001 20.817 0 37.625-17.168 37.036-38.118-.537-19.092-15.884-34.884-34.956-35.926z" fill="#e5edfc"/><g><path d="m353.941 35.983c-.537-19.093-15.884-34.884-34.955-35.926-6.202-.339-12.088.861-17.331 3.233 12.55 5.712 21.427 18.257 21.833 32.694.589 20.95-16.219 38.118-37.036 38.118-.104 0-.209 0-.313-.001-14.438-.119-26.296 11.317-26.296 25.755v90.449h30.453v-90.45c0-14.438 11.859-25.874 26.296-25.755.104.001.209.001.313.001 20.818.001 37.625-17.168 37.036-38.118z" fill="#d1d9fc"/></g><path d="m18.976 504.5c32.666-25.77 82.82-72.136 122.769-144.308 17.26-31.182 29.571-61.683 38.347-90.082 15.968-51.675 30.239-74.673 31.298-103.861.079-2.185.216-20.959 2.402-20.959l81.191 6.066c2.186 0 8.947-5.067 9.026-2.883 1.06 29.188 11.93 69.962 27.898 121.637 8.776 28.399 21.087 58.901 38.347 90.082 39.948 72.172 90.103 118.538 122.769 144.308z" fill="#695d69"/><path d="m370.255 360.192c-17.26-31.182-29.571-61.683-38.347-90.082-15.968-51.675-23.948-87.322-25.008-116.51-.079-2.185-.704-5.127-2.89-5.127l-27.898 1.472c2.186 0 3.977-7.598 4.056-5.413 1.642 45.229 10.969 127.74 59.635 215.661 39.948 72.172 90.103 118.538 122.769 144.308h30.453c-32.668-25.771-82.822-72.137-122.77-144.309z" fill="#564e57"/><path d="m200.629 290.647v54.093c0 9.624 7.875 17.796 17.497 17.616 9.331-.175 16.841-7.793 16.841-17.166v-69.41c0-11.541 9.356-20.897 20.897-20.897 11.541 0 20.897 9.356 20.897 20.897v23.28c0 9.624 7.875 17.796 17.497 17.616 9.331-.175 16.841-7.793 16.841-17.166v-8.864c0-11.342 9.195-20.537 20.537-20.537h.272c-15.967-51.672-20.228-96.384-21.288-125.572-.079-2.186-1.87-3.912-4.057-3.912h-101.127c-2.187 0-3.977 1.726-4.057 3.912-1.06 29.188-5.321 73.9-21.288 125.572 11.343.001 20.538 9.195 20.538 20.538z" fill="#fd4755"/><path d="m306.564 140.626h-30.453c2.186 0 3.977 1.722 4.056 3.906 1.247 34.36 6.936 90.238 30.932 153.657v-7.542c0-11.342 9.195-20.537 20.537-20.537h.272c-.016-.05-.028-.101-.044-.151-15.929-51.61-20.186-96.268-21.245-125.427-.078-2.185-1.869-3.906-4.055-3.906z" fill="#fb2b3a"/><g><path d="m376.053 477.637c-1.934 0-3.869-.733-5.353-2.2-16.561-16.379-30.642-34.973-41.851-55.267-8.729-15.803-15.701-32.638-20.723-50.037-1.166-4.04 1.164-8.259 5.204-9.426 4.04-1.166 8.26 1.164 9.426 5.204 4.707 16.309 11.241 32.087 19.422 46.896 10.506 19.02 23.704 36.449 39.23 51.803 2.989 2.957 3.016 7.777.059 10.766-1.489 1.507-3.451 2.261-5.414 2.261z" fill="#564e57"/></g><g><path d="m111.014 488.094c-2.182 0-4.347-.933-5.853-2.74-2.691-3.231-2.254-8.031.976-10.722 16.778-13.978 31.414-30.219 43.501-48.273 9.413-14.059 17.267-29.223 23.346-45.071 1.505-3.926 5.908-5.888 9.834-4.382 3.926 1.505 5.888 5.909 4.382 9.834-6.485 16.908-14.866 33.088-24.91 48.089-12.896 19.264-28.51 36.591-46.407 51.501-1.423 1.186-3.151 1.764-4.869 1.764z" fill="#564e57"/></g><g><g><path d="m318.544 123.334c-1.928 0-3.857-.728-5.34-2.187-2.997-2.95-3.035-7.77-.086-10.767 5.672-5.763 12.147-10.499 19.246-14.077 17.162-8.65 33.877-8.607 44.877-7.049 4.163.59 7.06 4.443 6.47 8.606s-4.439 7.064-8.606 6.47c-8.844-1.254-22.249-1.304-35.887 5.57-5.613 2.83-10.743 6.585-15.247 11.161-1.491 1.514-3.459 2.273-5.427 2.273z" fill="#fd4755"/></g><g><path d="m193.456 123.334c-1.969 0-3.936-.759-5.427-2.273-4.504-4.576-9.634-8.331-15.247-11.161-13.637-6.874-27.042-6.823-35.887-5.57-4.163.594-8.016-2.307-8.606-6.47s2.306-8.016 6.47-8.606c11.001-1.559 27.715-1.601 44.877 7.049 7.099 3.579 13.574 8.315 19.246 14.077 2.949 2.997 2.91 7.817-.086 10.767-1.482 1.458-3.411 2.187-5.34 2.187z" fill="#fd4755"/></g></g></g><g><path d="m504.5 512h-497c-4.142 0-7.5-3.358-7.5-7.5s3.358-7.5 7.5-7.5h497c4.142 0 7.5 3.358 7.5 7.5s-3.358 7.5-7.5 7.5z" fill="#564e57"/></g></g></svg>