<?xml version="1.0"?>
<svg xmlns="http://www.w3.org/2000/svg" xmlns:xlink="http://www.w3.org/1999/xlink" xmlns:svgjs="http://svgjs.com/svgjs" version="1.1" width="512" height="512" x="0" y="0" viewBox="0 0 613.158 613.16" style="enable-background:new 0 0 512 512" xml:space="preserve" class=""><g transform="matrix(1.2,0,0,1.2,-61.31579742431637,-61.31607208251944)"><g><g><g><g><g><g id="XMLID_30_"><g><g><path d="m488.165 338.32c-.857 14.469-4.012 28.154-9.158 40.891-24.146 60.053-92.238 98.879-172.429 98.879-80.19 0-148.284-38.826-172.431-98.879-5.146-12.736-8.3-26.422-9.153-40.891-.17-2.727-.261-5.506-.261-8.303 0-37.615 15.177-72.15 40.462-99.258l-3.605-71.25c-.592-19.568 13.021-30.359 30.238-21.088l63.021 40.227c16.389-4.221 33.751-6.523 51.729-6.523 17.791 0 34.937 2.256 51.185 6.381l62.805-40.084c17.244-9.271 30.857 1.52 30.264 21.088l-2.469 71.676-.045-.025c25.07 27.063 40.107 61.43 40.107 98.857 0 2.796-.094 5.576-.26 8.302z" fill="#f5e2a9" data-original="#f5e2a9" class=""/></g></g><g><g><path d="m306.578 489.949c-85.465 0-157.467-41.734-183.432-106.314-5.714-14.143-9.079-29.162-9.992-44.617-.186-3.027-.28-6.066-.28-9 0-39.043 15.502-77.17 43.649-107.348l17.344 16.176c-24.385 26.146-37.275 57.676-37.275 91.172 0 2.451.078 5.004.236 7.578.765 12.906 3.561 25.402 8.315 37.172 22.341 55.568 85.706 91.463 161.435 91.463 75.73 0 139.091-35.895 161.429-91.445 4.76-11.787 7.557-24.283 8.318-37.166.158-2.623.242-5.172.242-7.602 0-33.309-12.779-64.703-36.947-90.795l17.396-16.121c27.902 30.123 43.268 68.09 43.268 106.916 0 2.91-.096 5.945-.285 9.025-.91 15.43-4.275 30.449-9.998 44.607-25.955 64.565-97.955 106.299-183.423 106.299z" fill="#231f20" data-original="#231f20" class=""/></g><g><path d="m254.84 190.512c-5.282 0-10.1-3.557-11.477-8.906-1.633-6.344 2.185-12.807 8.527-14.443 35.323-9.094 73.319-9.156 108.793-.148 6.346 1.615 10.186 8.066 8.572 14.414-1.611 6.346-8.08 10.191-14.414 8.572-31.629-8.033-65.556-7.975-97.035.133-.99.253-1.985.378-2.966.378z" fill="#231f20" data-original="#231f20" class=""/></g><g><path d="m448.362 243.045c-1.811 0-3.629-.416-5.301-1.254-4.521-2.258-6.98-7.021-6.525-11.771l2.441-70.916c.199-6.629-1.936-10.367-3.826-11.537-2.588-1.602-6.664.113-8.623 1.117l-62.383 39.82c-5.525 3.529-12.85 1.906-16.381-3.615-3.523-5.521-1.904-12.855 3.617-16.381l62.803-40.082c.25-.16.506-.309.766-.447 11.432-6.148 23.336-6.357 32.676-.584 10.006 6.189 15.498 18.027 15.059 32.475l-2.471 71.723c-.137 4.037-2.318 7.723-5.793 9.785-1.858 1.108-3.957 1.667-6.059 1.667z" fill="#231f20" data-original="#231f20" class=""/></g><g><path d="m338.04 203.414c-3.85 0-7.623-1.875-9.904-5.324-3.611-5.463-2.109-12.818 3.354-16.432l19.732-13.043c5.467-3.617 12.822-2.109 16.434 3.354s2.111 12.82-3.354 16.43l-19.734 13.047c-2.014 1.329-4.282 1.968-6.528 1.968z" fill="#231f20" data-original="#231f20" class=""/></g><g><path d="m165.186 242.617c-6.276 0-11.515-4.92-11.832-11.258l-3.608-71.25c-.003-.082-.01-.158-.012-.24-.438-14.453 5.054-26.293 15.065-32.482 9.333-5.768 21.239-5.549 32.651.594.259.141.512.289.76.445l63.021 40.227c5.517 3.523 7.137 10.855 3.614 16.379-3.524 5.518-10.856 7.137-16.377 3.615l-62.607-39.963c-1.949-1.008-6.008-2.715-8.592-1.119-1.882 1.162-4.005 4.865-3.832 11.473l3.601 71.121c.331 6.541-4.702 12.115-11.244 12.443-.203.011-.407.015-.608.015z" fill="#231f20" data-original="#231f20" class=""/></g><g><path d="m274.358 203.414c-2.245 0-4.514-.639-6.528-1.969l-19.519-12.904c-5.464-3.611-6.967-10.967-3.354-16.43 3.61-5.467 10.964-6.969 16.429-3.355l19.521 12.902c5.467 3.613 6.967 10.969 3.354 16.432-2.281 3.449-6.054 5.324-9.903 5.324z" fill="#231f20" data-original="#231f20" class=""/></g><g><path d="m518.655 365.553c-1.918 0-3.865-.467-5.668-1.451l-1.713-.936c-10.08-5.502-18.789-10.256-27.613-13.877-9.273-3.838-18.258-6.27-29.172-7.896-6.477-.967-10.945-7-9.979-13.479.965-6.475 6.992-10.934 13.477-9.98 12.729 1.896 23.762 4.895 34.713 9.428 10 4.104 19.238 9.146 29.934 14.984l1.709.932c5.752 3.135 7.871 10.34 4.734 16.092-2.152 3.946-6.221 6.183-10.422 6.183z" fill="#231f20" data-original="#231f20" class=""/></g><g><path d="m512.724 407.744c-1.918 0-3.863-.465-5.67-1.449l-1.334-.73c-11.697-6.389-20.934-11.43-30.965-15.285-8.285-3.158-16.611-5.287-26.166-6.689-6.48-.949-10.963-6.973-10.014-13.453.951-6.479 6.959-10.973 13.457-10.014 11.309 1.66 21.227 4.205 31.197 8.004 11.537 4.434 21.883 10.082 33.855 16.621l1.332.729c5.75 3.137 7.867 10.34 4.727 16.088-2.152 3.944-6.22 6.178-10.419 6.178z" fill="#231f20" data-original="#231f20" class=""/></g><g><path d="m94.505 365.553c-4.203 0-8.271-2.236-10.425-6.184-3.135-5.748-1.017-12.951 4.732-16.092l1.66-.904c10.716-5.848 19.969-10.9 30.014-15.023 10.918-4.521 21.952-7.52 34.681-9.416 6.506-.953 12.515 3.506 13.479 9.98.966 6.479-3.502 12.512-9.98 13.479-10.913 1.627-19.899 4.059-29.135 7.883-8.872 3.643-17.592 8.402-27.691 13.914l-1.668.912c-1.801.982-3.751 1.451-5.667 1.451z" fill="#231f20" data-original="#231f20" class=""/></g><g><path d="m100.434 407.744c-4.2 0-8.267-2.234-10.423-6.18-3.139-5.744-1.021-12.951 4.73-16.088l1.31-.715c11.981-6.549 22.33-12.201 33.845-16.621 10-3.813 19.916-6.357 31.228-8.018 6.488-.959 12.504 3.535 13.457 10.014.949 6.48-3.533 12.504-10.015 13.453-9.557 1.402-17.881 3.531-26.194 6.701-10.006 3.846-19.252 8.893-30.953 15.283l-1.316.721c-1.802.985-3.75 1.45-5.669 1.45z" fill="#231f20" data-original="#231f20" class=""/></g></g></g></g></g></g><g><g><path d="m266.601 330.672c-6.551 0-11.86-5.309-11.86-11.859 0-7.602-6.18-13.779-13.78-13.779s-13.782 6.178-13.782 13.779c0 6.551-5.307 11.859-11.858 11.859s-11.859-5.309-11.859-11.859c0-20.678 16.824-37.5 37.5-37.5 20.677 0 37.5 16.822 37.5 37.5-.002 6.55-5.312 11.859-11.861 11.859z" fill="#231f20" data-original="#231f20" class=""/></g></g><g><g><path d="m397.843 330.672c-6.551 0-11.859-5.309-11.859-11.859 0-7.602-6.182-13.779-13.781-13.779-7.602 0-13.781 6.178-13.781 13.779 0 6.551-5.309 11.859-11.859 11.859s-11.857-5.309-11.857-11.859c0-20.678 16.82-37.5 37.498-37.5 20.676 0 37.498 16.822 37.498 37.5-.002 6.55-5.31 11.859-11.859 11.859z" fill="#231f20" data-original="#231f20" class=""/></g></g><g><g><path d="m306.582 400.297c-22.245 0-43.123-11.902-54.489-31.061-3.343-5.633-1.485-12.91 4.146-16.25 5.641-3.342 12.911-1.486 16.251 4.143 7.115 11.998 20.181 19.449 34.092 19.449 13.912 0 26.976-7.451 34.089-19.443 3.346-5.635 10.619-7.492 16.25-4.152 5.633 3.342 7.492 10.619 4.15 16.25-11.363 19.162-32.244 31.064-54.489 31.064z" fill="#231f20" data-original="#231f20" class=""/></g></g><g><g><path d="m306.582 400.297c-22.245 0-43.123-11.902-54.489-31.061-3.343-5.633-1.485-12.91 4.146-16.25 5.641-3.342 12.911-1.486 16.251 4.143 7.115 11.998 20.181 19.449 34.092 19.449 13.912 0 26.976-7.451 34.089-19.443 3.346-5.635 10.619-7.492 16.25-4.152 5.633 3.342 7.492 10.619 4.15 16.25-11.363 19.162-32.244 31.064-54.489 31.064z" fill="#231f20" data-original="#231f20" class=""/></g></g></g><g><g><path d="m473.79 249.752c2.447-2.787 3.943-6.432 3.943-10.434 0-8.752-7.096-15.844-15.846-15.844-4.293 0-8.184 1.713-11.037 4.486-2.852-2.773-6.74-4.486-11.039-4.486-8.746 0-15.842 7.092-15.842 15.844 0 5.027 2.35 9.504 6.002 12.402l20.936 20.934 21.609-21.611c.385-.35.75-.713 1.096-1.098l.193-.193z" fill="#ef4136" data-original="#ef4136"/></g></g><g><g><path d="m445.509 445.748c4.313-4.914 6.943-11.336 6.943-18.379 0-15.418-12.492-27.906-27.904-27.906-7.563 0-14.412 3.016-19.441 7.906-5.023-4.891-11.873-7.906-19.439-7.906-15.408 0-27.904 12.488-27.904 27.906 0 8.852 4.141 16.734 10.572 21.84l36.873 36.871 38.061-38.061c.674-.615 1.316-1.256 1.932-1.932l.336-.34h-.029z" fill="#ef4136" data-original="#ef4136"/></g></g><g><g><path d="m197.888 243.26c3.252-3.709 5.242-8.559 5.242-13.877 0-11.639-9.432-21.072-21.068-21.072-5.714 0-10.883 2.281-14.679 5.971-3.794-3.689-8.965-5.971-14.68-5.971-11.633 0-21.07 9.434-21.07 21.072 0 6.682 3.13 12.637 7.987 16.492l27.837 27.838 28.739-28.738c.509-.465.994-.947 1.455-1.459l.255-.256z" fill="#ef4136" data-original="#ef4136"/></g></g></g></g></svg>
