<?xml version="1.0"?>
<svg xmlns="http://www.w3.org/2000/svg" xmlns:xlink="http://www.w3.org/1999/xlink" xmlns:svgjs="http://svgjs.com/svgjs" version="1.1" width="512" height="512" x="0" y="0" viewBox="0 0 613.158 613.16" style="enable-background:new 0 0 512 512" xml:space="preserve"><g transform="matrix(1.2000000000000002,0,0,1.2000000000000002,-61.31568908691389,-61.315869140624784)"><g><g><g><g><g><g id="XMLID_26_"><g><g><path d="m488.164 338.32c-.853 14.47-4.009 28.152-9.153 40.89-24.146 60.056-92.238 98.88-172.431 98.88-80.189 0-148.285-38.824-172.434-98.88-5.145-12.737-8.3-26.42-9.15-40.89-.167-2.728-.262-5.504-.262-8.304 0-37.614 15.179-72.148 40.46-99.256l-3.603-71.252c-.594-19.565 13.021-30.358 30.24-21.083l63.021 40.223c16.388-4.22 33.75-6.523 51.728-6.523 17.787 0 34.936 2.258 51.182 6.382l62.807-40.082c17.244-9.275 30.858 1.518 30.266 21.083l-2.467 71.677-.049-.024c25.068 27.063 40.107 61.432 40.107 98.855 0 2.8-.096 5.577-.262 8.304z" fill="#f5e2a9" data-original="#f5e2a9"/></g></g><g><g><path d="m306.58 489.947c-85.464 0-157.467-41.73-183.433-106.313-5.718-14.145-9.081-29.162-9.99-44.619-.187-3.052-.283-6.088-.283-8.999 0-39.042 15.501-77.167 43.65-107.347l17.342 16.178c-24.386 26.148-37.271 57.674-37.271 91.169 0 2.43.077 4.98.236 7.581.762 12.901 3.557 25.399 8.312 37.171 22.344 55.568 85.707 91.462 161.437 91.462 75.732 0 139.094-35.894 161.427-91.443 4.763-11.788 7.56-24.288 8.322-37.167.157-2.631.236-5.184.236-7.604 0-33.307-12.774-64.703-36.948-90.794l17.399-16.121c27.903 30.118 43.269 68.087 43.269 106.915 0 2.893-.095 5.927-.282 9.016-.911 15.442-4.276 30.461-9.997 44.619-25.957 64.566-97.961 106.296-183.426 106.296z" fill="#231f20" data-original="#231f20"/></g><g><path d="m254.842 190.512c-5.275 0-10.096-3.553-11.475-8.903-1.637-6.342 2.184-12.808 8.523-14.444 35.293-9.091 73.32-9.159 108.791-.152 6.349 1.61 10.19 8.063 8.575 14.415-1.611 6.348-8.085 10.187-14.411 8.574-31.645-8.039-65.588-7.973-97.032.129-.996.259-1.99.381-2.971.381z" fill="#231f20" data-original="#231f20"/></g><g><path d="m448.367 243.044c-1.738 0-3.482-.381-5.098-1.153-4.643-2.21-7.202-7.051-6.727-11.891l2.438-70.898c.203-6.631-1.935-10.364-3.828-11.534-2.575-1.601-6.66.109-8.618 1.12l-62.392 39.815c-5.521 3.526-12.851 1.902-16.376-3.614-3.523-5.523-1.903-12.857 3.618-16.38l62.807-40.081c.246-.159.504-.311.76-.45 11.427-6.142 23.334-6.36 32.676-.584 10.008 6.19 15.5 18.027 15.063 32.475l-2.472 71.724c-.136 3.995-2.279 7.653-5.693 9.727-1.884 1.145-4.018 1.724-6.158 1.724z" fill="#231f20" data-original="#231f20"/></g><g><path d="m338.043 203.414c-3.854 0-7.626-1.871-9.905-5.322-3.61-5.461-2.112-12.822 3.354-16.433l19.735-13.043c5.465-3.616 12.816-2.109 16.43 3.353 3.611 5.463 2.109 12.82-3.355 16.43l-19.733 13.046c-2.012 1.33-4.284 1.969-6.526 1.969z" fill="#231f20" data-original="#231f20"/></g><g><path d="m165.187 242.619c-6.274 0-11.515-4.924-11.833-11.262l-3.605-71.247c-.004-.081-.01-.162-.011-.242-.437-14.453 5.055-26.293 15.065-32.482 9.337-5.766 21.234-5.55 32.653.597.256.14.509.288.756.445l63.021 40.225c5.521 3.524 7.139 10.859 3.616 16.379-3.525 5.521-10.855 7.135-16.378 3.611l-62.608-39.959c-1.952-1.005-6.016-2.713-8.589-1.119-1.883 1.162-4.008 4.864-3.832 11.474l3.598 71.12c.331 6.542-4.702 12.112-11.243 12.442-.205.013-.411.018-.61.018z" fill="#231f20" data-original="#231f20"/></g><g><path d="m274.359 203.414c-2.244 0-4.516-.639-6.528-1.969l-19.518-12.901c-5.465-3.613-6.967-10.969-3.354-16.432 3.61-5.46 10.964-6.965 16.429-3.355l19.521 12.902c5.464 3.611 6.964 10.972 3.354 16.433-2.282 3.451-6.054 5.322-9.904 5.322z" fill="#231f20" data-original="#231f20"/></g><g><path d="m518.655 365.551c-1.919 0-3.863-.467-5.669-1.448l-1.644-.898c-10.108-5.518-18.835-10.281-27.682-13.915-9.277-3.841-18.264-6.271-29.172-7.899-6.476-.963-10.945-6.996-9.979-13.474.967-6.476 7-10.938 13.479-9.982 12.724 1.899 23.754 4.893 34.711 9.428 10.022 4.115 19.283 9.171 30.007 15.025l1.641.896c5.746 3.135 7.865 10.339 4.73 16.088-2.153 3.944-6.219 6.179-10.422 6.179z" fill="#231f20" data-original="#231f20"/></g><g><path d="m512.727 407.747c-1.921 0-3.867-.469-5.673-1.453l-1.355-.743c-11.686-6.38-20.915-11.418-30.94-15.271-8.287-3.157-16.613-5.286-26.168-6.688-6.481-.951-10.963-6.974-10.015-13.455.952-6.479 6.962-10.969 13.455-10.013 11.314 1.66 21.227 4.202 31.202 8.005 11.529 4.43 21.863 10.074 33.833 16.608l1.354.737c5.748 3.141 7.865 10.342 4.727 16.091-2.156 3.947-6.223 6.182-10.42 6.182z" fill="#231f20" data-original="#231f20"/></g><g><path d="m94.506 365.551c-4.205 0-8.271-2.234-10.425-6.181-3.137-5.753-1.017-12.957 4.731-16.092l1.687-.92c10.707-5.841 19.954-10.887 29.993-15.008 10.921-4.524 21.951-7.518 34.679-9.417 6.505-.956 12.515 3.503 13.479 9.982.966 6.478-3.502 12.511-9.981 13.474-10.906 1.628-19.893 4.059-29.136 7.889-8.868 3.639-17.579 8.394-27.67 13.9l-1.689.924c-1.806.982-3.752 1.449-5.668 1.449z" fill="#231f20" data-original="#231f20"/></g><g><path d="m100.433 407.747c-4.198 0-8.265-2.235-10.42-6.181-3.137-5.749-1.02-12.95 4.729-16.091l1.353-.737c11.967-6.534 22.303-12.179 33.802-16.597 10.008-3.814 19.922-6.356 31.232-8.017 6.485-.956 12.504 3.533 13.454 10.013.95 6.481-3.531 12.504-10.013 13.455-9.558 1.401-17.88 3.53-26.198 6.699-9.993 3.841-19.225 8.879-30.908 15.259l-1.359.743c-1.804.985-3.753 1.454-5.672 1.454z" fill="#231f20" data-original="#231f20"/></g></g></g></g></g></g></g><g><g><g><circle cx="372.202" cy="305.994" fill="#231f20" r="25.64" data-original="#231f20"/></g></g><g><g><circle cx="240.961" cy="305.994" fill="#231f20" r="25.64" data-original="#231f20"/></g></g></g><g><g><path d="m348.21 396.347c-4.046 0-7.993-2.076-10.21-5.811-7.116-11.994-20.18-19.444-34.09-19.444-13.914 0-26.978 7.45-34.091 19.444-3.344 5.631-10.62 7.491-16.251 4.15-5.633-3.344-7.49-10.619-4.149-16.251 11.364-19.16 32.246-31.063 54.491-31.063 22.242 0 43.121 11.902 54.486 31.061 3.345 5.632 1.486 12.907-4.146 16.251-1.898 1.124-3.982 1.663-6.04 1.663z" fill="#231f20" data-original="#231f20"/></g></g><g><g><g><path d="m337.579 291.225 58.56-22.531" fill="#f5e2a9" data-original="#f5e2a9"/></g><g><path d="m337.582 298.344c-2.861 0-5.553-1.734-6.643-4.562-1.41-3.667.418-7.786 4.084-9.197l58.559-22.53c3.681-1.413 7.784.418 9.196 4.087 1.412 3.663-.416 7.783-4.086 9.192l-58.559 22.532c-.84.323-1.703.478-2.551.478z" fill="#231f20" data-original="#231f20"/></g></g><g><g><path d="m270.239 291.225-58.56-22.531" fill="#f5e2a9" data-original="#f5e2a9"/></g><g><path d="m270.235 298.344c-.849 0-1.712-.155-2.552-.478l-58.56-22.532c-3.669-1.409-5.495-5.529-4.087-9.192 1.416-3.669 5.515-5.5 9.197-4.087l58.558 22.53c3.669 1.412 5.495 5.531 4.087 9.197-1.087 2.828-3.783 4.562-6.643 4.562z" fill="#231f20" data-original="#231f20"/></g></g></g></g></g></svg>
