<?xml version="1.0"?>
<svg xmlns="http://www.w3.org/2000/svg" xmlns:xlink="http://www.w3.org/1999/xlink" xmlns:svgjs="http://svgjs.com/svgjs" version="1.1" width="512" height="512" x="0" y="0" viewBox="0 0 613.158 613.16" style="enable-background:new 0 0 512 512" xml:space="preserve" class=""><g transform="matrix(1.2000000000000002,0,0,1.2000000000000002,-61.315960693359386,-61.31600646972646)"><g><g><g><g><g><g id="XMLID_10_"><g><g><path d="m125.045 338.312c-.167-2.726-.262-5.502-.262-8.3 0-37.605 15.176-72.13 40.45-99.232l-3.603-71.229c-.593-19.563 13.019-30.352 30.232-21.08l63.002 40.215c16.383-4.222 33.741-6.521 51.714-6.521 17.784 0 34.929 2.254 51.17 6.379l62.789-40.072c17.237-9.271 30.849 1.518 30.256 21.08l-2.466 71.655-.049-.023c25.063 27.055 40.097 61.413 40.097 98.829 0 2.798-.095 5.574-.26 8.3-.854 14.465-4.008 28.146-9.153 40.879-24.138 60.038-92.214 98.853-172.384 98.853-80.168 0-148.243-38.814-172.383-98.853-5.144-12.735-8.299-26.416-9.15-40.88z" fill="#f5e2a9" data-original="#f5e2a9" class=""/></g></g><g><g><path d="m306.579 489.898c-85.44 0-157.422-41.72-183.383-106.285-5.715-14.142-9.076-29.153-9.986-44.605-.188-3.052-.283-6.087-.283-8.996 0-39.031 15.496-77.145 43.638-107.318l17.339 16.172c-24.379 26.143-37.265 57.66-37.265 91.146 0 2.43.081 4.977.238 7.574.762 12.903 3.557 25.396 8.311 37.163 22.337 55.554 85.684 91.438 161.392 91.438 75.711 0 139.056-35.884 161.385-91.419 4.761-11.784 7.556-24.278 8.317-37.155.157-2.631.239-5.183.239-7.601 0-33.299-12.773-64.688-36.938-90.771l17.395-16.114c27.894 30.108 43.255 68.067 43.255 106.886 0 2.893-.095 5.924-.28 9.013-.912 15.438-4.276 30.452-9.996 44.607-25.952 64.546-97.935 106.265-183.378 106.265z" fill="#231f20" data-original="#231f20" class=""/></g><g><path d="m254.856 190.543c-5.277.002-10.094-3.551-11.472-8.899-1.635-6.34 2.182-12.806 8.521-14.439 35.282-9.089 73.298-9.159 108.761-.152 6.347 1.611 10.186 8.063 8.572 14.41-1.611 6.347-8.074 10.178-14.408 8.572-31.633-8.035-65.567-7.971-97.006.132-.993.255-1.988.376-2.968.376z" fill="#231f20" data-original="#231f20" class=""/></g><g><path d="m448.328 243.062c-1.739 0-3.48-.382-5.097-1.151-4.641-2.209-7.201-7.051-6.725-11.89l2.438-70.878c.201-6.628-1.937-10.362-3.828-11.531-2.577-1.599-6.659.111-8.616 1.118l-62.375 39.808c-5.518 3.524-12.847 1.902-16.371-3.616-3.521-5.519-1.903-12.849 3.617-16.372l62.789-40.072c.248-.159.503-.309.762-.447 11.421-6.146 23.328-6.36 32.666-.586 10.006 6.188 15.494 18.021 15.057 32.466l-2.469 71.704c-.137 3.995-2.278 7.65-5.691 9.725-1.884 1.143-4.017 1.722-6.157 1.722z" fill="#231f20" data-original="#231f20" class=""/></g><g><path d="m338.032 203.441c-3.849 0-7.621-1.87-9.901-5.319-3.61-5.462-2.11-12.817 3.353-16.428l19.729-13.041c5.463-3.611 12.817-2.108 16.427 3.352 3.61 5.462 2.11 12.817-3.353 16.428l-19.729 13.041c-2.013 1.331-4.282 1.967-6.526 1.967z" fill="#231f20" data-original="#231f20" class=""/></g><g><path d="m165.225 242.635c-6.272.001-11.511-4.921-11.83-11.257l-3.604-71.229c-.005-.08-.009-.16-.012-.24-.438-14.45 5.053-26.286 15.063-32.472 9.334-5.767 21.231-5.551 32.643.596.257.138.51.286.757.444l63.003 40.215c5.518 3.521 7.137 10.852 3.614 16.372-3.526 5.521-10.853 7.137-16.373 3.615l-62.591-39.952c-1.951-1.005-6.011-2.709-8.588-1.12-1.881 1.164-4.006 4.864-3.83 11.474l3.596 71.1c.331 6.539-4.7 12.107-11.24 12.438-.203.011-.407.016-.608.016z" fill="#231f20" data-original="#231f20" class=""/></g><g><path d="m274.367 203.441c-2.243 0-4.513-.637-6.525-1.968l-19.513-12.898c-5.463-3.61-6.963-10.966-3.354-16.428 3.612-5.46 10.962-6.963 16.427-3.353l19.514 12.899c5.462 3.61 6.963 10.966 3.353 16.428-2.282 3.45-6.053 5.32-9.902 5.32z" fill="#231f20" data-original="#231f20" class=""/></g><g><path d="m518.597 365.535c-1.918 0-3.862-.468-5.666-1.449l-1.665-.91c-10.099-5.511-18.816-10.27-27.65-13.898-9.274-3.837-18.259-6.268-29.165-7.894-6.477-.966-10.943-6.997-9.978-13.475.968-6.474 7.007-10.929 13.474-9.978 12.725 1.896 23.752 4.891 34.704 9.425 10.013 4.11 19.264 9.16 29.976 15.007l1.66.905c5.747 3.138 7.866 10.339 4.73 16.087-2.154 3.946-6.22 6.18-10.42 6.18z" fill="#231f20" data-original="#231f20" class=""/></g><g><path d="m512.669 407.719c-1.92 0-3.865-.468-5.669-1.452l-1.356-.741c-11.683-6.379-20.91-11.418-30.932-15.269-8.285-3.156-16.607-5.284-26.162-6.686-6.479-.951-10.959-6.972-10.01-13.451.951-6.479 6.951-10.962 13.451-10.01 11.31 1.66 21.22 4.2 31.193 8.002 11.527 4.428 21.859 10.071 33.823 16.604l1.353.738c5.747 3.138 7.863 10.339 4.727 16.086-2.154 3.944-6.22 6.179-10.418 6.179z" fill="#231f20" data-original="#231f20" class=""/></g><g><path d="m94.563 365.535c-4.2 0-8.267-2.234-10.421-6.18-3.135-5.75-1.016-12.951 4.731-16.087l1.709-.931c10.693-5.838 19.93-10.879 29.961-14.996 10.916-4.518 21.942-7.514 34.669-9.41 6.486-.951 12.509 3.504 13.475 9.978.966 6.478-3.501 12.509-9.979 13.475-10.908 1.626-19.891 4.057-29.127 7.883-8.857 3.633-17.562 8.385-27.642 13.884l-1.711.936c-1.803.98-3.749 1.448-5.665 1.448z" fill="#231f20" data-original="#231f20" class=""/></g><g><path d="m100.49 407.719c-4.198 0-8.265-2.234-10.418-6.179-3.138-5.747-1.021-12.948 4.726-16.086l1.353-.738c11.965-6.532 22.297-12.176 33.794-16.592 10.004-3.813 19.914-6.354 31.224-8.014 6.488-.952 12.499 3.531 13.451 10.01.949 6.479-3.531 12.5-10.011 13.451-9.554 1.401-17.876 3.529-26.191 6.697-9.992 3.839-19.219 8.878-30.901 15.257l-1.356.741c-1.807.985-3.754 1.453-5.671 1.453z" fill="#231f20" data-original="#231f20" class=""/></g></g></g></g></g></g><g><g><path d="m346.551 305.994h51.267" fill="#f5e2a9" data-original="#f5e2a9" class=""/></g><g><path d="m397.818 317.851h-51.268c-6.548 0-11.855-5.31-11.855-11.856 0-6.548 5.308-11.856 11.855-11.856h51.268c6.548 0 11.855 5.309 11.855 11.856.001 6.546-5.307 11.856-11.855 11.856z" fill="#231f20" data-original="#231f20" class=""/></g></g><g><g><path d="m266.612 305.994h-51.266" fill="#f5e2a9" data-original="#f5e2a9" class=""/></g><g><path d="m266.612 317.851h-51.267c-6.549 0-11.856-5.31-11.856-11.856 0-6.548 5.308-11.856 11.856-11.856h51.267c6.549 0 11.855 5.309 11.855 11.856.001 6.546-5.306 11.856-11.855 11.856z" fill="#231f20" data-original="#231f20" class=""/></g></g></g><g><g><path d="m246.914 371.841h120.14" fill="#f5e2a9" data-original="#f5e2a9" class=""/></g><g><path d="m367.054 383.696h-120.14c-6.549 0-11.856-5.307-11.856-11.855s5.308-11.855 11.856-11.855h120.14c6.548 0 11.855 5.307 11.855 11.855s-5.307 11.855-11.855 11.855z" fill="#231f20" data-original="#231f20" class=""/></g></g></g></g></svg>
