<?xml version="1.0"?>
<svg xmlns="http://www.w3.org/2000/svg" xmlns:xlink="http://www.w3.org/1999/xlink" xmlns:svgjs="http://svgjs.com/svgjs" version="1.1" width="512" height="512" x="0" y="0" viewBox="0 0 613.158 613.16" style="enable-background:new 0 0 512 512" xml:space="preserve"><g transform="matrix(1.2,0,0,1.2,-61.31574249267561,-61.31594543457004)"><g><g><g><g><g><g id="XMLID_1_"><g><g><path d="m125.058 338.309c-.166-2.729-.26-5.502-.26-8.298 0-37.606 15.174-72.127 40.45-99.227l-3.605-71.223c-.593-19.56 13.017-30.349 30.23-21.078l62.995 40.213c16.384-4.222 33.739-6.521 51.711-6.521 17.782 0 34.924 2.252 51.166 6.378l62.782-40.07c17.238-9.271 30.848 1.518 30.255 21.078l-2.466 71.65-.048-.023c25.061 27.052 40.093 61.407 40.093 98.823 0 2.796-.096 5.569-.261 8.298-.853 14.461-4.007 28.144-9.152 40.872-24.136 60.034-92.207 98.848-172.369 98.848s-148.232-38.813-172.368-98.848c-5.147-12.729-8.298-26.411-9.153-40.872z" fill="#f5e2a9" data-original="#f5e2a9"/></g></g><g><g><path d="m306.579 489.883c-85.436 0-157.411-41.717-183.367-106.279-5.711-14.127-9.074-29.14-9.987-44.597-.187-3.066-.282-6.1-.282-8.996 0-39.031 15.496-77.142 43.633-107.313l17.341 16.172c-24.379 26.138-37.265 57.655-37.265 91.141 0 2.419.08 4.971.239 7.579.762 12.898 3.558 25.392 8.311 37.149 22.334 55.553 85.675 91.435 161.377 91.435s139.044-35.882 161.37-91.414c4.761-11.782 7.557-24.275 8.316-37.151.161-2.627.24-5.179.24-7.598 0-33.299-12.771-64.685-36.934-90.767l17.393-16.113c27.89 30.106 43.25 68.064 43.25 106.88 0 2.896-.094 5.93-.281 9.016-.909 15.433-4.272 30.442-9.993 44.596-25.95 64.543-97.926 106.26-183.361 106.26z" fill="#231f20" data-original="#231f20"/></g><g><path d="m254.86 190.552c-5.279.001-10.095-3.551-11.471-8.899-1.634-6.341 2.181-12.805 8.522-14.438 35.283-9.089 73.282-9.161 108.752-.154 6.346 1.612 10.184 8.063 8.572 14.409-1.613 6.343-8.065 10.183-14.409 8.571-31.628-8.033-65.553-7.968-97 .133-.992.256-1.987.378-2.966.378z" fill="#231f20" data-original="#231f20"/></g><g><path d="m448.316 243.066c-1.775 0-3.553-.398-5.197-1.201-4.581-2.234-7.091-7.037-6.624-11.83l2.438-70.882c.2-6.627-1.935-10.361-3.825-11.53-2.586-1.602-6.66.112-8.617 1.118l-62.369 39.803c-5.519 3.522-12.848 1.905-16.371-3.615-3.521-5.519-1.903-12.849 3.616-16.371l62.783-40.069c.248-.158.502-.308.761-.446 11.424-6.145 23.33-6.357 32.666-.586 10.005 6.187 15.491 18.02 15.054 32.463l-2.467 71.698c-.139 4.014-2.298 7.685-5.74 9.752-1.872 1.127-3.987 1.696-6.108 1.696z" fill="#231f20" data-original="#231f20"/></g><g><path d="m338.029 203.448c-3.846 0-7.62-1.87-9.899-5.319-3.611-5.461-2.11-12.815 3.352-16.427l19.727-13.04c5.455-3.609 12.813-2.111 16.426 3.352 3.611 5.461 2.11 12.815-3.352 16.426l-19.727 13.04c-2.012 1.332-4.282 1.968-6.527 1.968z" fill="#231f20" data-original="#231f20"/></g><g><path d="m165.237 242.638c-6.273 0-11.51-4.921-11.83-11.255l-3.604-71.224c-.004-.08-.007-.16-.011-.239-.438-14.45 5.052-26.285 15.061-32.469 9.333-5.767 21.231-5.548 32.64.594.257.138.509.287.758.446l62.995 40.211c5.519 3.522 7.136 10.852 3.614 16.371-3.522 5.518-10.854 7.136-16.371 3.614l-62.585-39.948c-1.949-1.003-6.012-2.708-8.587-1.119-1.881 1.162-4.005 4.862-3.828 11.472l3.597 71.093c.33 6.539-4.702 12.107-11.242 12.438-.202.011-.405.015-.607.015z" fill="#231f20" data-original="#231f20"/></g><g><path d="m274.371 203.448c-2.245 0-4.515-.636-6.527-1.965l-19.513-12.899c-5.461-3.61-6.962-10.965-3.353-16.427 3.61-5.462 10.964-6.964 16.428-3.352l19.513 12.896c5.461 3.612 6.962 10.967 3.353 16.428-2.281 3.449-6.055 5.319-9.901 5.319z" fill="#231f20" data-original="#231f20"/></g><g><path d="m518.58 365.528c-1.918 0-3.861-.466-5.667-1.449l-1.641-.896c-10.105-5.514-18.832-10.277-27.674-13.906-9.266-3.841-18.249-6.272-29.16-7.897-6.474-.967-10.942-6.998-9.977-13.475.966-6.476 7.012-10.927 13.474-9.977 12.729 1.898 23.757 4.893 34.702 9.43 10.015 4.108 19.272 9.161 29.993 15.012l1.637.895c5.748 3.135 7.865 10.336 4.73 16.085-2.151 3.943-6.219 6.178-10.417 6.178z" fill="#231f20" data-original="#231f20"/></g><g><path d="m512.653 407.707c-1.919 0-3.866-.468-5.67-1.45l-1.298-.709c-11.704-6.392-20.949-11.44-30.989-15.301-8.284-3.153-16.608-5.281-26.159-6.686-6.479-.951-10.958-6.972-10.006-13.451s6.98-10.953 13.451-10.007c11.303 1.66 21.211 4.201 31.186 8 11.548 4.438 21.897 10.092 33.883 16.636l1.292.705c5.747 3.138 7.862 10.339 4.727 16.085-2.154 3.945-6.221 6.178-10.417 6.178z" fill="#231f20" data-original="#231f20"/></g><g><path d="m94.578 365.528c-4.197 0-8.266-2.235-10.418-6.18-3.135-5.749-1.016-12.95 4.73-16.085l1.637-.895c10.721-5.851 19.979-10.903 30.029-15.029 10.91-4.52 21.938-7.514 34.667-9.412 6.485-.954 12.508 3.504 13.473 9.977.966 6.477-3.502 12.508-9.978 13.475-10.91 1.625-19.892 4.057-29.124 7.882-8.878 3.645-17.604 8.408-27.708 13.922l-1.642.896c-1.801.981-3.747 1.449-5.666 1.449z" fill="#231f20" data-original="#231f20"/></g><g><path d="m100.506 407.707c-4.197 0-8.263-2.233-10.416-6.178-3.137-5.746-1.021-12.947 4.726-16.085l1.312-.717c11.979-6.538 22.322-12.188 33.83-16.611 10.004-3.812 19.914-6.351 31.218-8.013 6.47-.944 12.5 3.528 13.452 10.007.951 6.477-3.528 12.5-10.006 13.451-9.552 1.404-17.875 3.532-26.191 6.699-10.002 3.844-19.241 8.889-30.938 15.278l-1.316.718c-1.804.983-3.751 1.451-5.671 1.451z" fill="#231f20" data-original="#231f20"/></g></g></g></g></g></g><g><g><g><circle cx="372.178" cy="305.992" fill="#231f20" r="25.63" data-original="#231f20"/></g></g><g><g><circle cx="240.985" cy="305.992" fill="#231f20" r="25.631" data-original="#231f20"/></g></g></g></g><g><g><path d="m306.581 396.507c-22.234 0-43.106-11.898-54.47-31.051-3.341-5.63-1.484-12.903 4.146-16.244 5.634-3.342 12.904-1.483 16.245 4.144 7.113 11.991 20.172 19.44 34.078 19.44 13.909 0 26.968-7.449 34.08-19.438 3.34-5.629 10.61-7.489 16.243-4.148 5.632 3.342 7.487 10.614 4.148 16.245-11.359 19.153-32.232 31.052-54.47 31.052z" fill="#231f20" data-original="#231f20"/></g></g></g></g></svg>
