<?xml version="1.0"?>
<svg xmlns="http://www.w3.org/2000/svg" xmlns:xlink="http://www.w3.org/1999/xlink" xmlns:svgjs="http://svgjs.com/svgjs" version="1.1" width="512" height="512" x="0" y="0" viewBox="0 0 613.158 613.16" style="enable-background:new 0 0 512 512" xml:space="preserve"><g transform="matrix(1.3,0,0,1.3,-91.97371673583967,-91.97397537231444)"><g><g><g><g><g id="XMLID_3_"><g><g><path d="m125.042 338.312c-.167-2.728-.26-5.502-.26-8.299 0-37.607 15.174-72.132 40.451-99.234l-3.605-71.229c-.593-19.563 13.019-30.352 30.232-21.08l63.002 40.215c16.386-4.222 33.743-6.521 51.717-6.521 17.783 0 34.926 2.253 51.169 6.378l62.787-40.072c17.24-9.271 30.849 1.518 30.256 21.08l-2.466 71.655-.047-.022c25.064 27.054 40.097 61.412 40.097 98.83 0 2.797-.095 5.571-.262 8.299-.854 14.463-4.008 28.146-9.153 40.877-24.138 60.038-92.214 98.854-172.381 98.854-80.171 0-148.246-38.816-172.384-98.854-5.145-12.732-8.299-26.415-9.153-40.877z" fill="#f5e2a9" data-original="#f5e2a9"/></g></g><g><g><path d="m306.579 489.899c-85.443 0-157.425-41.721-183.383-106.288-5.713-14.135-9.077-29.146-9.989-44.601-.186-3.031-.28-6.066-.28-8.998 0-39.035 15.495-77.148 43.637-107.32l17.339 16.172c-24.378 26.141-37.264 57.659-37.264 91.148 0 2.452.078 4.999.235 7.576.765 12.902 3.56 25.396 8.313 37.158 22.336 55.556 85.684 91.44 161.392 91.44s139.053-35.885 161.382-91.422c4.761-11.781 7.556-24.274 8.317-37.153.16-2.626.241-5.173.241-7.6 0-33.301-12.772-64.689-36.938-90.773l17.396-16.114c27.893 30.108 43.255 68.069 43.255 106.888 0 2.906-.095 5.941-.285 9.021-.91 15.431-4.274 30.442-9.994 44.596-25.951 64.55-97.933 106.27-183.374 106.27z" fill="#231f20" data-original="#231f20"/></g><g><path d="m254.854 190.543c-5.277.001-10.094-3.552-11.472-8.9-1.635-6.341 2.182-12.805 8.523-14.438 35.278-9.091 73.288-9.164 108.761-.153 6.348 1.612 10.184 8.063 8.572 14.41-1.609 6.346-8.056 10.184-14.407 8.572-31.64-8.034-65.563-7.969-97.012.132-.991.255-1.986.377-2.965.377z" fill="#231f20" data-original="#231f20"/></g><g><path d="m448.325 243.062c-1.813 0-3.629-.416-5.303-1.252-4.518-2.259-6.978-7.021-6.521-11.769l2.44-70.898c.201-6.629-1.937-10.362-3.825-11.532-2.589-1.601-6.662.112-8.619 1.118l-62.37 39.808c-5.524 3.524-12.852 1.902-16.374-3.616-3.521-5.519-1.902-12.849 3.615-16.372l62.787-40.072c.25-.158.505-.308.764-.447 11.421-6.146 23.33-6.357 32.666-.585 10.006 6.187 15.494 18.02 15.057 32.465l-2.469 71.705c-.139 4.034-2.32 7.72-5.791 9.783-1.861 1.105-3.956 1.664-6.057 1.664z" fill="#231f20" data-original="#231f20"/></g><g><path d="m338.031 203.44c-3.849 0-7.62-1.87-9.901-5.319-3.61-5.462-2.109-12.817 3.353-16.428l19.729-13.041c5.462-3.612 12.816-2.107 16.427 3.352 3.609 5.463 2.109 12.818-3.354 16.428l-19.729 13.042c-2.011 1.33-4.281 1.966-6.525 1.966z" fill="#231f20" data-original="#231f20"/></g><g><path d="m165.224 242.634c-6.272 0-11.511-4.921-11.83-11.256l-3.605-71.229c-.005-.08-.009-.161-.012-.241-.438-14.45 5.053-26.286 15.063-32.471 9.334-5.768 21.231-5.553 32.643.595.257.138.51.286.757.444l63.003 40.215c5.518 3.522 7.137 10.853 3.614 16.372-3.524 5.521-10.851 7.137-16.373 3.615l-62.591-39.952c-1.951-1.005-6.014-2.709-8.588-1.119-1.881 1.162-4.004 4.862-3.83 11.473l3.598 71.099c.332 6.54-4.7 12.109-11.239 12.44-.205.01-.408.015-.61.015z" fill="#231f20" data-original="#231f20"/></g><g><path d="m274.367 203.44c-2.244 0-4.514-.636-6.525-1.966l-19.516-12.899c-5.463-3.61-6.966-10.965-3.354-16.428 3.607-5.462 10.962-6.966 16.427-3.354l19.516 12.899c5.463 3.611 6.966 10.966 3.353 16.428-2.279 3.45-6.053 5.32-9.901 5.32z" fill="#231f20" data-original="#231f20"/></g><g><path d="m518.596 365.533c-1.917 0-3.862-.465-5.666-1.449l-1.665-.91c-10.096-5.509-18.816-10.268-27.652-13.894-9.27-3.841-18.252-6.272-29.163-7.898-6.477-.966-10.943-6.997-9.978-13.475.966-6.477 6.993-10.938 13.475-9.978 12.731 1.898 23.76 4.893 34.706 9.43 10.008 4.107 19.259 9.155 29.973 15.002l1.66.905c5.748 3.136 7.866 10.337 4.73 16.087-2.151 3.946-6.219 6.18-10.42 6.18z" fill="#231f20" data-original="#231f20"/></g><g><path d="m512.668 407.717c-1.92 0-3.864-.468-5.668-1.452l-1.295-.706c-11.707-6.394-20.956-11.443-30.999-15.304-8.28-3.154-16.604-5.282-26.159-6.686-6.479-.951-10.959-6.975-10.008-13.453.952-6.475 6.968-10.957 13.454-10.008 11.307 1.662 21.218 4.202 31.187 8 11.55 4.439 21.902 10.094 33.888 16.638l1.292.706c5.748 3.138 7.864 10.339 4.727 16.087-2.154 3.943-6.221 6.178-10.419 6.178z" fill="#231f20" data-original="#231f20"/></g><g><path d="m94.562 365.533c-4.2 0-8.267-2.234-10.42-6.18-3.136-5.747-1.017-12.949 4.73-16.087l1.614-.88c10.729-5.855 19.995-10.915 30.054-15.042 10.909-4.522 21.938-7.517 34.669-9.415 6.5-.961 12.512 3.501 13.475 9.978.966 6.478-3.501 12.509-9.979 13.475-10.91 1.626-19.893 4.058-29.125 7.883-8.885 3.646-17.619 8.414-27.733 13.935l-1.619.885c-1.802.98-3.749 1.448-5.666 1.448z" fill="#231f20" data-original="#231f20"/></g><g><path d="m100.489 407.717c-4.198 0-8.265-2.234-10.417-6.178-3.139-5.745-1.021-12.949 4.726-16.087l1.271-.694c11.992-6.551 22.353-12.208 33.872-16.636 10.004-3.812 19.914-6.352 31.221-8.014 6.498-.949 12.502 3.528 13.454 10.008.951 6.479-3.529 12.502-10.008 13.453-9.555 1.403-17.879 3.531-26.194 6.699-10.013 3.849-19.266 8.901-30.98 15.299l-1.275.697c-1.805.985-3.75 1.453-5.67 1.453z" fill="#231f20" data-original="#231f20"/></g></g></g></g></g></g><g><g><g><g><circle cx="372.181" cy="306.572" fill="#ffffff" r="31.041" data-original="#ffffff"/></g></g><g><g><circle cx="372.184" cy="310.846" fill="#231f20" r="25.633" data-original="#231f20"/></g></g><g><g><path d="m390.704 303.731c0 6.3-5.108 11.405-11.407 11.405-6.303 0-11.406-5.105-11.406-11.405 0-6.301 5.104-11.406 11.406-11.406 6.299 0 11.407 5.106 11.407 11.406z" fill="#ffffff" data-original="#ffffff"/></g></g><g><g><path d="m368.965 318.154c0 2.265-1.834 4.097-4.094 4.097s-4.094-1.832-4.094-4.097c0-2.26 1.834-4.094 4.094-4.094s4.094 1.835 4.094 4.094z" fill="#ffffff" data-original="#ffffff"/></g></g><g><g><path d="m407.582 349.466c0 10.119-15.843 18.321-35.396 18.321s-35.401-8.202-35.401-18.321c0-10.117 15.849-18.316 35.401-18.316s35.396 8.199 35.396 18.316z" fill="#f05042" data-original="#f05042"/></g></g></g><g><g><g><circle cx="240.978" cy="306.572" fill="#ffffff" r="31.041" data-original="#ffffff"/></g></g><g><g><circle cx="240.978" cy="310.846" fill="#231f20" r="25.633" data-original="#231f20"/></g></g><g><g><circle cx="248.092" cy="303.731" fill="#ffffff" r="11.406" data-original="#ffffff"/></g></g><g><g><path d="m237.762 318.154c0 2.265-1.834 4.097-4.096 4.097-2.26 0-4.094-1.832-4.094-4.097 0-2.26 1.834-4.094 4.094-4.094 2.262.001 4.096 1.835 4.096 4.094z" fill="#ffffff" data-original="#ffffff"/></g></g><g><g><path d="m276.377 349.466c0 10.119-15.848 18.321-35.4 18.321-19.549 0-35.396-8.202-35.396-18.321 0-10.117 15.848-18.316 35.396-18.316 19.552-.001 35.4 8.199 35.4 18.316z" fill="#f05042" data-original="#f05042"/></g></g></g></g><g><g><path d="m327.896 341.667c0 6.169-9.666 11.173-21.591 11.173s-21.591-5.004-21.591-11.173c0-6.174 9.666-11.175 21.591-11.175s21.591 5.001 21.591 11.175z" fill="#231f20" data-original="#231f20"/></g></g></g></g></svg>
