<?xml version="1.0"?>
<svg xmlns="http://www.w3.org/2000/svg" xmlns:xlink="http://www.w3.org/1999/xlink" xmlns:svgjs="http://svgjs.com/svgjs" version="1.1" width="512" height="512" x="0" y="0" viewBox="0 0 24 24" style="enable-background:new 0 0 512 512" xml:space="preserve" class=""><g><path xmlns="http://www.w3.org/2000/svg" d="m7 13v9a1 1 0 0 1 -1 1h-4a1 1 0 0 1 -1-1v-9a1 1 0 0 1 1-1h4a1 1 0 0 1 1 1zm7-12h-4a1 1 0 0 0 -1 1v20a1 1 0 0 0 1 1h4a1 1 0 0 0 1-1v-20a1 1 0 0 0 -1-1zm8 5h-4a1 1 0 0 0 -1 1v15a1 1 0 0 0 1 1h4a1 1 0 0 0 1-1v-15a1 1 0 0 0 -1-1z" fill="#9EACF6" data-original="#000000" class=""/></g></svg>
