<?xml version="1.0"?>
<svg xmlns="http://www.w3.org/2000/svg" xmlns:xlink="http://www.w3.org/1999/xlink" xmlns:svgjs="http://svgjs.com/svgjs" version="1.1" width="512" height="512" x="0" y="0" viewBox="0 0 24 24" style="enable-background:new 0 0 512 512" xml:space="preserve" class=""><g><g xmlns="http://www.w3.org/2000/svg" id="Layer_93" data-name="Layer 93"><path d="m19 5h-1v-2a1 1 0 0 0 -2 0v2h-8v-2a1 1 0 0 0 -2 0v2h-1a3 3 0 0 0 -3 3v1h20v-1a3 3 0 0 0 -3-3z" fill="#A1A1A1" data-original="#000000" class=""/><path d="m2 19a3 3 0 0 0 3 3h14a3 3 0 0 0 3-3v-8h-20z" fill="#A1A1A1" data-original="#000000" class=""/></g></g></svg>
